<svg xmlns="http://www.w3.org/2000/svg" version="1.1" xmlns:xlink="http://www.w3.org/1999/xlink" xmlns:svgjs="http://svgjs.dev/svgjs" viewBox="0 0 10.61226660761141 3.422396679822294"><g transform="matrix(0.7453032423409172,0,0,0.7453032423409172,3.6086216159556868,1.3109704987740747)"><g transform="matrix(1,0,0,1,0,0)" clip-path="url(#SvgjsClipPath51593)"><g clip-path="url(#SvgjsClipPath515915f00ba37-2ad7-4980-95e2-1176d9c901ba)"><path d=" M -2.4370133443075224 -0.08696816406445851 C -2.432758721505033 -0.08625973112856622 -2.434195713312496 -0.0789379157286334 -2.4334953307508753 -0.07551650666324417 C -2.431261351890533 -0.06458409840254198 -2.4268738979125635 -0.05393747842847807 -2.421383542659398 -0.044256903366994615 C -2.4061965115962054 -0.01749745928851565 -2.3804151879917144 0.004149997127558369 -2.3513171101873636 0.014506803627848175 C -2.340714767271793 0.018278403974047674 -2.3299393413093847 0.019803949898497875 -2.318777497381945 0.020588861389969404 C -2.2651660299208647 0.024352411361897475 -2.217419260116575 0.0006601598808614328 -2.1876852027447753 -0.04426092855413033 C -2.1798401130171947 -0.05610705429464835 -2.173343460980091 -0.07102842300688084 -2.173488367716978 -0.08539431589437951 C -2.1735286195883354 -0.08900490875514899 -2.175452659039225 -0.10011442524982439 -2.171673008318754 -0.10151519037306617 C -2.1643471677316852 -0.09090479708322396 -2.1623426245380806 -0.07495700565137464 -2.1603501569058836 -0.06251515221476545 C -2.151482669645822 -0.00718895503385486 -2.176817197478245 0.04685723263788655 -2.2233121340833155 0.07746073043100865 C -2.267383908032664 0.10647025411837296 -2.329693804894104 0.10758120576784058 -2.3750536387268926 0.08060842677116675 C -2.4087927572987655 0.0605509192737147 -2.4332658950841375 0.025869906912075913 -2.4405716097355272 -0.012703461409835026 C -2.4450637185790263 -0.036427914387957006 -2.4455386906610452 -0.06405277370062257 -2.4370133443075224 -0.08696816406445851 Z" fill="#c61e3a" transform="matrix(1,0,0,1,0,0)" fill-rule="evenodd"></path></g><g clip-path="url(#SvgjsClipPath515915f00ba37-2ad7-4980-95e2-1176d9c901ba)"><path d=" M -2.171673008318754 -0.10151519037306617 C -2.175452659039225 -0.10011442524982439 -2.1735286195883354 -0.08900490875514899 -2.173488367716978 -0.08539431589437951 C -2.173343460980091 -0.07102842300688084 -2.1798401130171947 -0.05610705429464835 -2.1876852027447753 -0.04426092855413033 C -2.217419260116575 0.0006601598808614328 -2.2651660299208647 0.024352411361897475 -2.318777497381945 0.020588861389969404 C -2.3299393413093847 0.019803949898497875 -2.340714767271793 0.018278403974047674 -2.3513171101873636 0.014506803627848175 C -2.3804151879917144 0.004149997127558369 -2.4061965115962054 -0.01749745928851565 -2.421383542659398 -0.044256903366994615 C -2.4268738979125635 -0.05393747842847807 -2.431261351890533 -0.06458409840254198 -2.4334953307508753 -0.07551650666324417 C -2.434195713312496 -0.0789379157286334 -2.432758721505033 -0.08625973112856622 -2.4370133443075224 -0.08696816406445851 C -2.425074639262882 -0.1184894045245321 -2.407146455760243 -0.14557488876100694 -2.3789540450614366 -0.16489981219975214 C -2.334966800041939 -0.19505248903366995 -2.2671786234887406 -0.19494380898100466 -2.2229216909311478 -0.16565252219413767 C -2.205826721165609 -0.15434174634267467 -2.1916741631963053 -0.13781835315041296 -2.18115232402345 -0.12036111654265674 C -2.1774934289170513 -0.11429113434194277 -2.1750702662613284 -0.10769385262644532 -2.171673008318754 -0.10151519037306617 Z" fill="#f53756" transform="matrix(1,0,0,1,0,0)" fill-rule="evenodd"></path></g><g clip-path="url(#SvgjsClipPath515915f00ba37-2ad7-4980-95e2-1176d9c901ba)"><path d=" M -2.3207981413240923 0.27830951813075955 C -2.3219090929735597 0.29346032250973 -2.32742359934954 0.30802344956688044 -2.330088273233408 0.32294481827911303 C -2.3339564780708653 0.3445801991337797 -2.335602779609388 0.3665174690236278 -2.337224930025096 0.38839436110643977 C -2.3395675889381033 0.4200242816191786 -2.3370075699197654 0.4521774764595652 -2.3346246591354003 0.483710792481046 C -2.330684000929499 0.5359657718773778 -2.3225933747866376 0.5888003782212579 -2.307881315805464 0.6391916959737367 C -2.3004628959142734 0.6645986771746029 -2.294803482801406 0.6907020157499544 -2.285859516985765 0.7156420752430734 C -2.282683644335657 0.7245055373159992 -2.279531922808363 0.7378087807996594 -2.2718035635077194 0.7435245465324272 C -2.272773633607436 0.7525449909036475 -2.27020153902769 0.7633687191116842 -2.2689497058284713 0.7723247604887324 C -2.265950941412336 0.7936985041795752 -2.2620304091421137 0.8151326256774545 -2.256298542660803 0.8359468683564277 C -2.239517537491853 0.8968680756560334 -2.2228411871884326 0.95709695076829 -2.1918834729273646 1.0127129614229748 C -2.1816192457311967 1.0311483185047186 -2.1686299668441253 1.0478407695566818 -2.157665357086337 1.065837381240629 C -2.15433652732507 1.0712995601838446 -2.148564408972402 1.0824573789241487 -2.1414478781163924 1.0826868145908868 C -2.1396848461509332 1.0855004203987773 -2.1396445942795754 1.0907975666694267 -2.138843582039561 1.0941102956821507 C -2.136730358793291 1.1028208006439177 -2.1346131103598855 1.1115916834127215 -2.132137620271398 1.1202055838832303 C -2.1262246203689785 1.1407622145855156 -2.120359922712188 1.1613309208492082 -2.1144509479969043 1.1818875515514935 C -2.111206647165488 1.1931782014672776 -2.1060825839416757 1.2061272284829918 -2.105788745280766 1.2179331023521522 C -2.108614426650064 1.2206823051658708 -2.1142134619558948 1.2229203092133487 -2.118129969038981 1.2225057149383667 C -2.123374787876866 1.21965990763339 -2.1279433752759447 1.214483516976813 -2.132206048452706 1.210361725349803 C -2.140691142934871 1.202166444341412 -2.148628811966574 1.193480090502459 -2.1566268588053132 1.1848219129734567 C -2.1860066997091665 1.153026959788152 -2.213116335068456 1.1187202898301383 -2.2378350092691086 1.0832382652284844 C -2.274097920175098 1.0311925955632122 -2.305091861120388 0.9766794861837234 -2.331674196964894 0.9190951590196557 C -2.3582323816865856 0.861563159288353 -2.3815623663254035 0.8023043542758128 -2.3980133061492217 0.741012829759718 C -2.405995252239418 0.7112626716393753 -2.4110347865333797 0.6806712494076603 -2.4157201043593948 0.6502609605970546 C -2.4196849136881102 0.624499762928242 -2.4236416726425545 0.5987667415693798 -2.4254771579764576 0.5727358563624716 C -2.428987121158833 0.5229201403704056 -2.4286892573107877 0.47201762385168644 -2.426551882941703 0.4221334796783127 C -2.426153389415264 0.41285542333040426 -2.4253403016138417 0.40362164404098944 -2.424873379906095 0.39435566325448845 C -2.4245392893738273 0.38765775186059703 -2.424933757713131 0.38045266688760115 -2.422337512010571 0.37413312308447055 C -2.4195359817640876 0.36732653163791407 -2.4137920397213697 0.36182410082334115 -2.408720303930322 0.3566678361024429 C -2.3901762667959128 0.33780580918430925 -2.3703803964622847 0.31962001370498183 -2.350318863777697 0.3023801372025562 C -2.3430050987520357 0.2960887697093759 -2.336065676129999 0.28933450569558405 -2.3286834829230303 0.2831357175065262 C -2.3273189444840106 0.28198853917283684 -2.322396140616986 0.27644183129977073 -2.3210879547978664 0.2762606978786618 C -2.3204036729847886 0.2761640933874038 -2.3208947458153504 0.27762523631768177 -2.3207981413240923 0.27830951813075955 Z" fill="#c01c34" transform="matrix(1,0,0,1,0,0)" fill-rule="evenodd"></path></g><g clip-path="url(#SvgjsClipPath515915f00ba37-2ad7-4980-95e2-1176d9c901ba)"><path d=" M -2.3207981413240923 0.27830951813075955 C -2.3199850535226703 0.27460634596586775 -2.3161329494337557 0.2719336217077284 -2.3132951925030505 0.26963926504034985 C -2.307349991103545 0.2648372167873979 -2.3013967393297676 0.2600754204058032 -2.2953146815676466 0.25545048038682416 C -2.2700123552323097 0.23623021181360881 -2.24469392814843 0.217223278158588 -2.2181840456723676 0.19966943705957374 C -2.138155275039347 0.14667784841739917 -2.0519116154687262 0.10358419494203885 -1.9618681792419548 0.0704206781305785 C -1.9417462687503309 0.0630103086136592 -1.9212862425393036 0.05613931417293061 -1.9006209317843532 0.05039537213021261 C -1.8851239613117081 0.0460884218949581 -1.8691801950669946 0.042828020314998994 -1.8538643580154583 0.037977669816417814 C -1.8524474921436738 0.03940258606247404 -1.8491347631309498 0.04358475549652019 -1.8522542831611575 0.044788286450110126 C -1.8552288964544783 0.045850935853948505 -1.8573340693264766 0.04845120674364445 -1.8603167329940686 0.04960643545160526 C -1.8780959845726852 0.0564935306408767 -1.8950178712913863 0.06850871424109639 -1.9109052849161994 0.07932841726199757 C -1.9474781352316417 0.1042362752580307 -1.9832781496170195 0.13052477244162664 -2.0161196514576196 0.16025882981342632 C -2.0599619897402297 0.19995522534621213 -2.1033494818765 0.2389753894401916 -2.1393386800572585 0.28626731309814124 C -2.190108365400498 0.3529888150603656 -2.230706402851692 0.4307836068330435 -2.2517983834430324 0.5121809410922196 C -2.256540053888948 0.5304874921856195 -2.258761957187883 0.5492649901739022 -2.261656066738489 0.5679056317995694 C -2.2706483347997586 0.6258602761801262 -2.2736269732802152 0.6848695195902497 -2.2718035635077194 0.7435245465324272 C -2.279531922808363 0.7378087807996594 -2.282683644335657 0.7245055373159992 -2.285859516985765 0.7156420752430734 C -2.294803482801406 0.6907020157499544 -2.3004628959142734 0.6645986771746029 -2.307881315805464 0.6391916959737367 C -2.3225933747866376 0.5888003782212579 -2.330684000929499 0.5359657718773778 -2.3346246591354003 0.483710792481046 C -2.3370075699197654 0.4521774764595652 -2.3395675889381033 0.4200242816191786 -2.337224930025096 0.38839436110643977 C -2.335602779609388 0.3665174690236278 -2.3339564780708653 0.3445801991337797 -2.330088273233408 0.32294481827911303 C -2.32742359934954 0.30802344956688044 -2.3219090929735597 0.29346032250973 -2.3207981413240923 0.27830951813075955 Z" fill="#f03350" transform="matrix(1,0,0,1,0,0)" fill-rule="evenodd"></path></g><g clip-path="url(#SvgjsClipPath515915f00ba37-2ad7-4980-95e2-1176d9c901ba)"><path d=" M -1.8538643580154583 0.037977669816417814 C -1.8461561246504934 0.036661433623026984 -1.838568646899601 0.033380906107389086 -1.8308563883475002 0.031726554194595025 C -1.7959137388220374 0.024223605373553392 -1.7607456788169729 0.01604845030084112 -1.7260928427652842 0.008239587257482417 C -1.7360873824233563 0.018016766810223794 -1.7488915027021834 0.025254053280305833 -1.7599808932611798 0.033803550756642986 C -1.7835765402509578 0.052001421797377545 -1.807429799217424 0.06996180679710273 -1.830469970382468 0.08886408558659387 C -1.8810585223045986 0.13036779014333233 -1.9278714486933939 0.17909268042160975 -1.9687431988698192 0.2301320533029445 C -2.016683177656625 0.2900026867601191 -2.0600183423601304 0.35522279392070777 -2.091587885065833 0.42531740270269247 C -2.113174963674871 0.47325738148949803 -2.129754709487033 0.5226061757738172 -2.1435691517369335 0.573267181064391 C -2.1492849174697013 0.5942303556673874 -2.1549765320796546 0.6153102606973202 -2.1588608376656553 0.6367162058852494 C -2.164170059497712 0.6659793163621659 -2.167551216691744 0.6955523662485354 -2.1690687122419225 0.7252461717489775 C -2.1707633160260738 0.7584620159932027 -2.173476292155571 0.7915530794362196 -2.1732227053660185 0.8248937044816529 C -2.1727396829097283 0.8876423467408903 -2.1642465380532916 0.9496503545671489 -2.1538333789331015 1.0113725741067694 C -2.1498403932944354 1.0350567752135338 -2.1467812510712636 1.0592763262093532 -2.1414478781163924 1.0826868145908868 C -2.148564408972402 1.0824573789241487 -2.15433652732507 1.0712995601838446 -2.157665357086337 1.065837381240629 C -2.1686299668441253 1.0478407695566818 -2.1816192457311967 1.0311483185047186 -2.1918834729273646 1.0127129614229748 C -2.2228411871884326 0.95709695076829 -2.239517537491853 0.8968680756560334 -2.256298542660803 0.8359468683564277 C -2.2620304091421137 0.8151326256774545 -2.265950941412336 0.7936985041795752 -2.2689497058284713 0.7723247604887324 C -2.27020153902769 0.7633687191116842 -2.272773633607436 0.7525449909036475 -2.2718035635077194 0.7435245465324272 C -2.2736269732802152 0.6848695195902497 -2.2706483347997586 0.6258602761801262 -2.261656066738489 0.5679056317995694 C -2.258761957187883 0.5492649901739022 -2.256540053888948 0.5304874921856195 -2.2517983834430324 0.5121809410922196 C -2.230706402851692 0.4307836068330435 -2.190108365400498 0.3529888150603656 -2.1393386800572585 0.28626731309814124 C -2.1033494818765 0.2389753894401916 -2.0599619897402297 0.19995522534621213 -2.0161196514576196 0.16025882981342632 C -1.9832781496170195 0.13052477244162664 -1.9474781352316417 0.1042362752580307 -1.9109052849161994 0.07932841726199757 C -1.8950178712913863 0.06850871424109639 -1.8780959845726852 0.0564935306408767 -1.8603167329940686 0.04960643545160526 C -1.8573340693264766 0.04845120674364445 -1.8552288964544783 0.045850935853948505 -1.8522542831611575 0.044788286450110126 C -1.8491347631309498 0.04358475549652019 -1.8524474921436738 0.03940258606247404 -1.8538643580154583 0.037977669816417814 Z" fill="#be1b36" transform="matrix(1,0,0,1,0,0)" fill-rule="evenodd"></path></g><g clip-path="url(#SvgjsClipPath515915f00ba37-2ad7-4980-95e2-1176d9c901ba)"><path d=" M -2.0959109360496306 -0.2881550674836126 C -2.092674685592486 -0.2865369422550403 -2.0917448673641275 -0.28271301447607594 -2.090319951118071 -0.27947273883179563 C -2.0879933929536065 -0.2741836429354175 -2.085372996128232 -0.2689549248460758 -2.0827968763613507 -0.26377853418949876 C -2.074094421773855 -0.24629714645892803 -2.0639549753788957 -0.22983413107370254 -2.0503659436085973 -0.21570169904007747 C -2.030312461298281 -0.19485122967688234 -2.0062096407293986 -0.1783519876074351 -1.9792851639783535 -0.16775769506613591 C -1.963603034897464 -0.1615870831870282 -1.9464356117634818 -0.1591719709055771 -1.9297632866471972 -0.15794428882917272 C -1.8903567045881857 -0.15503810371715976 -1.8472751266742324 -0.16282281563770407 -1.8142041891668945 -0.18556914814183834 C -1.787010024877754 -0.20427821794881346 -1.7626495923321834 -0.23351315211577983 -1.7484809336143365 -0.2632834361718013 C -1.7438680691567647 -0.272976086794692 -1.7400682925006148 -0.28314773468673715 -1.735946500873605 -0.29305372022782267 C -1.7346866173001145 -0.29608066095390817 -1.7339580584285434 -0.3018085022480832 -1.7302750121993304 -0.3024686329383465 C -1.727276247783195 -0.29497775967871215 -1.7274010285844037 -0.2843955426988203 -1.7266684445256968 -0.27635321880158786 C -1.724587422776513 -0.25341367731493747 -1.7260525908939266 -0.23065929443653166 -1.7316677269483005 -0.20829535471029387 C -1.7438439180339502 -0.15978782453734708 -1.7708005962820812 -0.11738650324933603 -1.814067332804279 -0.09094102376744567 C -1.8286666865456511 -0.08201718388748369 -1.8451699538022344 -0.07584657200837586 -1.861725548491582 -0.07173283075563741 C -1.9020780495274954 -0.06171413997475084 -1.9453689371725076 -0.06098960629031536 -1.9846104865589533 -0.07659123162849002 C -2.0339190289719147 -0.09619791816673784 -2.0760023604762017 -0.14133636670706012 -2.091209517475072 -0.19223888322577937 C -2.0985554839978198 -0.21683680181235948 -2.0996986371443733 -0.24210290146347452 -2.0976538420794113 -0.26753805897429106 C -2.0970983662546776 -0.27446138084778443 -2.097166794435985 -0.28132432491424153 -2.0959109360496306 -0.2881550674836126 Z" fill="#e97e14" transform="matrix(1,0,0,1,0,0)" fill-rule="evenodd"></path></g><g clip-path="url(#SvgjsClipPath515915f00ba37-2ad7-4980-95e2-1176d9c901ba)"><path d=" M -1.7302750121993304 -0.3024686329383465 C -1.7339580584285434 -0.3018085022480832 -1.7346866173001145 -0.29608066095390817 -1.735946500873605 -0.29305372022782267 C -1.7400682925006148 -0.28314773468673715 -1.7438680691567647 -0.272976086794692 -1.7484809336143365 -0.2632834361718013 C -1.7626495923321834 -0.23351315211577983 -1.787010024877754 -0.20427821794881346 -1.8142041891668945 -0.18556914814183834 C -1.8472751266742324 -0.16282281563770407 -1.8903567045881857 -0.15503810371715976 -1.9297632866471972 -0.15794428882917272 C -1.9464356117634818 -0.1591719709055771 -1.963603034897464 -0.1615870831870282 -1.9792851639783535 -0.16775769506613591 C -2.0062096407293986 -0.1783519876074351 -2.030312461298281 -0.19485122967688234 -2.0503659436085973 -0.21570169904007747 C -2.0639549753788957 -0.22983413107370254 -2.074094421773855 -0.24629714645892803 -2.0827968763613507 -0.26377853418949876 C -2.085372996128232 -0.2689549248460758 -2.0879933929536065 -0.2741836429354175 -2.090319951118071 -0.27947273883179563 C -2.0917448673641275 -0.28271301447607594 -2.092674685592486 -0.2865369422550403 -2.0959109360496306 -0.2881550674836126 C -2.0925700307269564 -0.30053251792604985 -2.0909800818083344 -0.313091101789596 -2.0859606734500518 -0.3252632676881098 C -2.069159542345423 -0.36601426225046263 -2.037336412850168 -0.4006268464307936 -1.9985094577387048 -0.4212317793787079 C -1.9511652066479903 -0.4463569974800716 -1.8903325534653712 -0.4497019279898814 -1.8404604848534043 -0.42982555391353827 C -1.7864022216202557 -0.40827470198872234 -1.7433850467004746 -0.3589259077044034 -1.7302750121993304 -0.3024686329383465 Z" fill="#fcb12f" transform="matrix(1,0,0,1,0,0)" fill-rule="evenodd"></path></g><g clip-path="url(#SvgjsClipPath515915f00ba37-2ad7-4980-95e2-1176d9c901ba)"><path d=" M -1.806520106924744 0.20541740428942756 C -1.8244563408016545 0.231420113186385 -1.843584030070748 0.2571611849195188 -1.8578975955254817 0.2854381245481764 C -1.8846570396039608 0.3383089575762782 -1.9017842108665854 0.39512849918455273 -1.915457771566735 0.4525558440503259 C -1.9511289799637686 0.602349158120199 -1.9426962129143681 0.760514861432436 -1.9062924204586276 0.9093059039055071 C -1.892135837302188 0.967155893420534 -1.8712129145705494 1.0252956964093354 -1.8424368517370586 1.0775587261799384 C -1.8355900084191445 1.0900005796165477 -1.8295401521541095 1.1029133799480402 -1.8220009766488459 1.1149647902324815 C -1.8201131638821781 1.1179836805842955 -1.8171546513374006 1.1256154353936814 -1.8138258215761338 1.1266901603589268 C -1.815138032582389 1.1333357443200534 -1.8134112273011511 1.1411405821762766 -1.8132502198157212 1.1479149721257471 C -1.8128275751664673 1.1659397601196444 -1.8114630367274474 1.1838478176866045 -1.810605671867532 1.20183637899628 C -1.8083072900130177 1.2500782468182674 -1.8029054888768388 1.2975915557686835 -1.7971534964598492 1.3455275093683534 C -1.794283538032058 1.3694330957675842 -1.79236754895544 1.3934916392779735 -1.788813308714571 1.4173167219344893 C -1.7851061113625437 1.442180302872029 -1.7804690957821574 1.466987531189668 -1.7770919637752614 1.49188733881143 C -1.7758200046403638 1.5012781003991391 -1.7729500462125727 1.5139212131925366 -1.7810205464197555 1.521017618112867 C -1.7894734394048344 1.5284481135654648 -1.80135981701671 1.519379366948616 -1.8087017583523215 1.514368008964605 C -1.8316251990904289 1.4987060058193935 -1.856368024413896 1.4858173566107162 -1.8788688205027495 1.4695596257694137 C -1.892103635805102 1.459999806322003 -1.9054068792887622 1.4507016240384163 -1.9183357803687975 1.440727210316023 C -1.925110170318268 1.435498492226681 -1.9327177740048391 1.430370403815733 -1.9378700135386016 1.4234148804451532 C -1.9435495525871476 1.4157388485772746 -1.9466891985530341 1.40532971464422 -1.949728214840527 1.3963656228929004 C -1.9547315224502666 1.381605261666098 -1.9596664018786987 1.367034084234676 -1.9656035529039326 1.3526078135401411 C -1.9908535518065045 1.2912599364041453 -2.014505551416183 1.2285233697063158 -2.0316689493630293 1.1643981134466512 C -2.051734507234753 1.0894129022947283 -2.068704696199083 1.013191958692129 -2.076348526569876 0.9358037108201622 C -2.089933533153039 0.7983033182628756 -2.0755636150784045 0.6558720714642925 -2.0275552081102908 0.5258545017923688 C -2.01588216541661 0.49424068202817306 -2.002236781026411 0.46235314953874607 -1.9860676043020955 0.43276802409096926 C -1.9771558399835407 0.41646601619117374 -1.9667426808633504 0.4010133227770222 -1.957062105801867 0.3851701862107023 C -1.9467455511729348 0.368284526176223 -1.9367711374505414 0.3509077933111818 -1.9249894147041955 0.33497610262787547 C -1.9062159419030484 0.30958119698841646 -1.8855063540896047 0.28547032604526223 -1.8643378949426852 0.262059837663729 C -1.848450481317872 0.24448989581617164 -1.832691873681403 0.2261149165414641 -1.815041428091131 0.2102838555365517 C -1.8127269454880734 0.20820685897450353 -1.8090761007559464 0.2072206881262444 -1.806520106924744 0.20541740428942756 Z" fill="#e57a14" transform="matrix(1,0,0,1,0,0)" fill-rule="evenodd"></path></g><g clip-path="url(#SvgjsClipPath515915f00ba37-2ad7-4980-95e2-1176d9c901ba)"><path d=" M -1.806520106924744 0.20541740428942756 C -1.8072768421062653 0.20634722251778626 -1.8080215017263794 0.2072931414946878 -1.8087983628435795 0.20821088416163924 C -1.8093377379197704 0.20885088891622383 -1.807800116433913 0.2068704968454339 -1.8073050184162156 0.2061982905937635 C -1.80625846976092 0.2047653239734356 -1.805091165491552 0.20342493665723038 -1.8039681382806771 0.20205234784393888 C -1.8009170464317772 0.19833710011763983 -1.7979223072027777 0.19455744939716868 -1.7944083188332662 0.1912608211329878 C -1.7830089888648168 0.180565898913295 -1.7714647521594802 0.17012858867029013 -1.760355235664805 0.15908750035692254 C -1.7276103383154626 0.126543862364368 -1.6903411306255354 0.0995791337419657 -1.651888517917697 0.07429290815517187 C -1.5743996403673362 0.023334039016552177 -1.484098592163877 -0.004270694360434701 -1.392622189316778 -0.015013918825756534 C -1.347882234302895 -0.02026678803791293 -1.301403398446367 -0.022516867646798278 -1.2564501085142894 -0.017706769019574686 C -1.2514145994074637 -0.01598801411260864 -1.2435614593056117 -0.016937958276646015 -1.2379744995611879 -0.016221474966482186 C -1.218061898800623 -0.013677556696687021 -1.197746779326483 -0.011612635696046203 -1.1780797149811988 -0.007595498934565792 C -1.1715629370084166 -0.006263161992631772 -1.1637741999007365 -0.006347690922482774 -1.1578169229398234 -0.0032040197694603867 C -1.1563437044481386 0.011475837714626902 -1.1572614471150897 0.02607116626886352 -1.1579658548638463 0.04074699856581521 C -1.1586139099927024 0.05428370290334905 -1.1590808317004497 0.0677600294338464 -1.1611658786367691 0.08118402853157936 C -1.1671312059719539 0.11956016268383829 -1.1826281764445985 0.15751767737397926 -1.2028627921760235 0.19056043857136706 C -1.2238541430889702 0.22484698259370217 -1.2524369969399447 0.2557241931120553 -1.2819577193935496 0.2827774758514442 C -1.3268023292729618 0.32387866169460733 -1.3800193283947384 0.35404341408993245 -1.4285550348776355 0.3902499723760213 C -1.5027593597252231 0.44560032067974653 -1.57161018568226 0.5058211454177315 -1.6304624467940894 0.5775781564867815 C -1.6556601182638966 0.6082983847068404 -1.6767681996037798 0.6419731002845412 -1.6967492285456522 0.6762193924355187 C -1.7239353424605213 0.7228069083447117 -1.7476034428187426 0.7715599749329396 -1.7652498632218792 0.8226234989370889 C -1.7808192870629678 0.867669368173289 -1.7913210003001447 0.9151021733809899 -1.7998423214665313 0.9619473012668709 C -1.8060129333456392 0.9958715784469885 -1.810251455399586 1.0312046711246192 -1.8115676915929768 1.0656562478195202 C -1.8120788903592175 1.0791406247242894 -1.8131536153244632 1.0925646238220217 -1.8133588998683865 1.106065101475334 C -1.8134555043596445 1.1123162170971568 -1.8120265629264525 1.1207489841465572 -1.8138258215761338 1.1266901603589268 C -1.8171546513374006 1.1256154353936814 -1.8201131638821781 1.1179836805842955 -1.8220009766488459 1.1149647902324815 C -1.8295401521541095 1.1029133799480402 -1.8355900084191445 1.0900005796165477 -1.8424368517370586 1.0775587261799384 C -1.8712129145705494 1.0252956964093354 -1.892135837302188 0.967155893420534 -1.9062924204586276 0.9093059039055071 C -1.9426962129143681 0.760514861432436 -1.9511289799637686 0.602349158120199 -1.915457771566735 0.4525558440503259 C -1.9017842108665854 0.39512849918455273 -1.8846570396039608 0.3383089575762782 -1.8578975955254817 0.2854381245481764 C -1.843584030070748 0.2571611849195188 -1.8244563408016545 0.231420113186385 -1.806520106924744 0.20541740428942756 Z" fill="#263a44" transform="matrix(1,0,0,1,0,0)" fill-rule="evenodd"></path></g><g clip-path="url(#SvgjsClipPath515915f00ba37-2ad7-4980-95e2-1176d9c901ba)"><path d=" M -1.6269041813660845 -0.44217482804602526 C -1.6255154918042503 -0.4397395898288954 -1.6209831310893934 -0.4390432324544103 -1.6201579677265643 -0.43530785879243244 C -1.6191798472525767 -0.4308680773816981 -1.622532828136658 -0.42815510125220124 -1.6226696844992734 -0.4242023674848928 C -1.622746163054853 -0.42189996044324274 -1.6215265313527198 -0.41879251597444217 -1.620926778469493 -0.4165665874883714 C -1.6154807002748206 -0.3963762488154396 -1.6076476861086473 -0.3774457937159981 -1.5951414296778659 -0.360572209242926 C -1.571996603647292 -0.32934883263089804 -1.540986561953459 -0.30225932320728743 -1.5055528395974347 -0.2859371893718133 C -1.4398014077349268 -0.25564765617527985 -1.3604005662950835 -0.26375438306668425 -1.302236612183468 -0.3070009936532032 C -1.2732512396189182 -0.3285518455780192 -1.249901129044421 -0.3560680248380195 -1.2334381136591954 -0.3882292700526776 C -1.2285676372249357 -0.3977448124415952 -1.2235482288666528 -0.4074374630644859 -1.2192292030699912 -0.4172146426172274 C -1.217836488321021 -0.420370389331657 -1.2164477987591864 -0.4264886737779999 -1.2123702841906696 -0.42720515708816376 C -1.2090495048036745 -0.41786672293321925 -1.2080633339554152 -0.40755016830428703 -1.2069765334287623 -0.3977609131901383 C -1.2044607914689174 -0.37509910961585474 -1.2053785341358685 -0.35393065046893524 -1.2100880030846983 -0.33156671074269733 C -1.2218697258310445 -0.2756488110528313 -1.2523886946943157 -0.22498378057512142 -1.3002481697384063 -0.192488444828196 C -1.3676257772037583 -0.14674621821751072 -1.463795548251144 -0.14507174036903803 -1.5337975777290063 -0.18638626113039602 C -1.5497976965936204 -0.19582935015087005 -1.5640750353641324 -0.20831548064597266 -1.5769194075143167 -0.22166702637526187 C -1.6200895395452566 -0.2665317621903531 -1.6443976446580626 -0.32982380471291683 -1.6366048823632469 -0.39237521280250215 C -1.6350712860645253 -0.4046802098764959 -1.6339080069822929 -0.4168201742779237 -1.6310259729930947 -0.4289158616208584 C -1.6301806836945867 -0.4324580263003201 -1.62947627594583 -0.43966311127331603 -1.6269041813660845 -0.44217482804602526 Z" fill="#23353b" transform="matrix(1,0,0,1,0,0)" fill-rule="evenodd"></path></g><g clip-path="url(#SvgjsClipPath515915f00ba37-2ad7-4980-95e2-1176d9c901ba)"><path d=" M -1.2123702841906696 -0.42720515708816376 C -1.2164477987591864 -0.4264886737779999 -1.217836488321021 -0.420370389331657 -1.2192292030699912 -0.4172146426172274 C -1.2235482288666528 -0.4074374630644859 -1.2285676372249357 -0.3977448124415952 -1.2334381136591954 -0.3882292700526776 C -1.249901129044421 -0.3560680248380195 -1.2732512396189182 -0.3285518455780192 -1.302236612183468 -0.3070009936532032 C -1.3604005662950835 -0.26375438306668425 -1.4398014077349268 -0.25564765617527985 -1.5055528395974347 -0.2859371893718133 C -1.540986561953459 -0.30225932320728743 -1.571996603647292 -0.32934883263089804 -1.5951414296778659 -0.360572209242926 C -1.6076476861086473 -0.3774457937159981 -1.6154807002748206 -0.3963762488154396 -1.620926778469493 -0.4165665874883714 C -1.6215265313527198 -0.41879251597444217 -1.622746163054853 -0.42189996044324274 -1.6226696844992734 -0.4242023674848928 C -1.622532828136658 -0.42815510125220124 -1.6191798472525767 -0.4308680773816981 -1.6201579677265643 -0.43530785879243244 C -1.6209831310893934 -0.4390432324544103 -1.6255154918042503 -0.4397395898288954 -1.6269041813660845 -0.44217482804602526 C -1.6256724741025446 -0.45485416752364394 -1.6163702666318218 -0.46917578335264937 -1.6103365111153296 -0.48014039311043766 C -1.5880289240089924 -0.5206740275674598 -1.5529534433080499 -0.552786970536489 -1.5108298599324055 -0.571592644834722 C -1.4786042117235754 -0.5859786636578995 -1.444989873952911 -0.5904908984370775 -1.4099264688133757 -0.5892149141150441 C -1.385936353484294 -0.5883414485065859 -1.3613102585877637 -0.5845215459147574 -1.33894229367439 -0.575472925233587 C -1.2983563317846032 -0.5590541869068547 -1.2639772084581453 -0.5300527135937619 -1.239890488637806 -0.49363282038947826 C -1.2260559204522263 -0.4727139228449753 -1.2184885686370126 -0.45130395246991073 -1.2123702841906696 -0.42720515708816376 Z" fill="#314958" transform="matrix(1,0,0,1,0,0)" fill-rule="evenodd"></path></g><g clip-path="url(#SvgjsClipPath515915f00ba37-2ad7-4980-95e2-1176d9c901ba)"><path d=" M -1.060866265588102 0.08086201356071909 C -1.0586242363534881 0.08371989642710298 -1.0577547959321658 0.08841728981452546 -1.0567364235868206 0.09189102631267942 C -1.0545386714107 0.09936177363663512 -1.0525099770942812 0.1068969239547628 -1.050139141871323 0.11431534384595354 C -1.0393435899732364 0.14804641204355484 -1.0326738548892953 0.18352038627093692 -1.0289304308530463 0.21869649665027313 C -1.0249937978342807 0.2556960168021051 -1.0247683873546785 0.29379441304199727 -1.0288298011746522 0.33080198356810075 C -1.0337445546674053 0.3755821904533413 -1.0460012494957702 0.4201772387303373 -1.0601578326522096 0.4628240964336292 C -1.0711425683456768 0.4959312606251889 -1.082839762162172 0.5296059762028897 -1.0983246570734095 0.5609541336161259 C -1.1218236995719295 0.6085398959349855 -1.1455682784857304 0.6559847767040938 -1.168697003767761 0.7037234961341119 C -1.175644476764069 0.7180612127116603 -1.1841738483047273 0.7315415644292935 -1.191056918306863 0.7459195328781998 C -1.1936330380737443 0.7512971828915644 -1.1969175907765182 0.7561555837644169 -1.1982901795898095 0.7618673243100489 C -1.2083370466806462 0.7740636413313771 -1.214072938349093 0.7909170998687705 -1.2209560083512285 0.8050857585866178 C -1.2375116030405764 0.8391670180650292 -1.2520063019164192 0.8739446349179261 -1.2640858885108108 0.9098573545431052 C -1.2728970231509718 0.9360572976097143 -1.2834470386337777 0.9616252862960109 -1.2904428138757147 0.98841290668444 C -1.3098079891858172 1.0625729544735343 -1.3210704627916512 1.1397035903688129 -1.3227207895173096 1.2163351030592586 C -1.3234936254473737 1.2523363768014244 -1.3230589052367128 1.2883215497950466 -1.3200641660077133 1.3242101182974113 C -1.3181401265568238 1.3472462642753191 -1.312814803976224 1.3709183898206767 -1.3140384608654925 1.3939424602371775 C -1.313901604502877 1.3929804405117332 -1.3137647481402615 1.3920224459734243 -1.31362386659051 1.3910604262479793 C -1.3135634887834737 1.3906538823472685 -1.313724496268904 1.391877539236537 -1.3137969496373474 1.3922800579501124 C -1.3139458815613705 1.3931172968743488 -1.3141350653567505 1.3939464854243138 -1.3143041232164523 1.3947796991614143 C -1.3148837501640005 1.3976456324020696 -1.315684762404015 1.4004511878356884 -1.3163770945913646 1.4032889447663939 C -1.3185064185861772 1.4120155504767038 -1.3201084430662067 1.420911214046716 -1.3217346186690504 1.4297424746225558 C -1.326689624033161 1.4566065735665645 -1.3310931787596736 1.4835793525632381 -1.3360240330009696 1.5104555270686537 C -1.341570740874036 1.5406645565224724 -1.34718587692841 1.571034593461721 -1.3507401171692788 1.6015535623249921 C -1.351774590263167 1.6104170243979177 -1.3530827760822866 1.6192724360965725 -1.353968317252152 1.6281479737309053 C -1.354471465644121 1.6332116591476813 -1.3546203975681437 1.6391045331144218 -1.3576111116100074 1.6434557604081699 C -1.3637293960563506 1.6523634995395893 -1.3760947709373805 1.6557808834178422 -1.3859766053556515 1.6583731039332663 C -1.4099989221818192 1.6646805721749895 -1.4355186086224865 1.6654051058594248 -1.4595972780685547 1.6586749929684481 C -1.4699259082588942 1.6557849086049778 -1.4810716514377913 1.6519287793289277 -1.4867833919834235 1.6421475745890504 C -1.4910782666572708 1.63478550731776 -1.4919114803943714 1.6243200207648048 -1.493505454500129 1.6160241100780206 C -1.4967819568286314 1.5989412158738887 -1.499269522478526 1.5816409615644271 -1.5028921909007027 1.5646345459158753 C -1.5166422301564313 1.5000544435098708 -1.5283555247214695 1.4348705630335032 -1.539400638221973 1.3697832870483948 C -1.5507073888863 1.3031422888288853 -1.5597439340060633 1.2349153668778894 -1.5629198066561716 1.1673727267399718 C -1.5639542797500599 1.1453308019845945 -1.5634913832294484 1.1231922727379584 -1.563612138843521 1.1011342472340377 C -1.563740944831865 1.0772729378933004 -1.564614410440323 1.0532184195700467 -1.5633786779896472 1.0293772361649878 C -1.5594460701580177 0.9535346601531496 -1.5469035870430146 0.8761142107840962 -1.5248214104162794 0.8034434822352308 C -1.500255693326785 0.7225855230522455 -1.4615172923323083 0.6464088565081398 -1.413408255685801 0.577083058469084 C -1.386648811607322 0.5385257908957162 -1.3561177671826434 0.5012404824572456 -1.3223826737979065 0.4685277866049897 C -1.273561179028371 0.42118353551427523 -1.21898366665471 0.3776712625767965 -1.1758779376179425 0.32477225323874437 C -1.1592619651215583 0.304380655209025 -1.1419456100635537 0.28382804969387543 -1.127809152842793 0.26160901670452474 C -1.1080857358776082 0.23061507575923468 -1.093063737486982 0.19669884895338885 -1.0806701862960015 0.16224324707135207 C -1.0738998215336668 0.14342549721171172 -1.0690414206608143 0.12330358672008768 -1.0659219006306067 0.10356004381922446 C -1.0650927120806417 0.09832730054274685 -1.0641266671680611 0.09313480913762684 -1.0632733274952817 0.0879141414225566 C -1.0628265317232133 0.08518908973165251 -1.063285403056689 0.08255661734487074 -1.060866265588102 0.08086201356071909 Z" fill="#203034" transform="matrix(1,0,0,1,0,0)" fill-rule="evenodd"></path></g><g clip-path="url(#SvgjsClipPath515915f00ba37-2ad7-4980-95e2-1176d9c901ba)"><path d=" M -1.1982901795898095 0.7618673243100489 C -1.1930292600033816 0.7597983781222724 -1.1894307427040194 0.7550446321149493 -1.1857275705391275 0.7509188153008033 C -1.1786593419287472 0.743041524076137 -1.1719010527278195 0.7348945453133748 -1.1648167233688962 0.7270293296501158 C -1.1405689960631265 0.7000927773376637 -1.1143972293064672 0.6747501991309695 -1.0890667266611802 0.6488320191638626 C -1.033603673117654 0.59207688054976 -0.9741758102454123 0.5384895642114942 -0.9238851221713273 0.47694042771871126 C -0.9142649249168802 0.46516273015950094 -0.9064037344407567 0.45170250437754644 -0.8980635466954785 0.4390110893385206 C -0.8870103828207037 0.42219385748534877 -0.8756553299107477 0.4056342376088652 -0.8662645683230381 0.38775435635185507 C -0.8484933671186934 0.35392668366299573 -0.8367116443723472 0.3167540804643265 -0.8286813960365222 0.2795130490843494 C -0.8195361708640936 0.23708355148638804 -0.8186023274485992 0.1934102710634794 -0.8228166983797314 0.1504051717051056 C -0.8242697909357379 0.13558443267126685 -0.8277314518724848 0.12125476646798994 -0.8304726043119317 0.10665138753948189 C -0.831603681897078 0.10061360683585396 -0.8345501188804485 0.0921285123536888 -0.8328474647220256 0.08617526057991154 C -0.8294783830894008 0.08665425784906611 -0.8262582333807997 0.08881175815382913 -0.8231427385377277 0.0901803217799848 C -0.8167346406176104 0.09299795277501122 -0.810314467136086 0.09569482815596497 -0.8040230996429059 0.09877007112767955 C -0.7904863953053718 0.10538747877885579 -0.7767041545525573 0.11142928466961932 -0.763336508074725 0.11840493397587748 C -0.7579186061900027 0.12123464053231114 -0.7516554150067727 0.12352497201255408 -0.7470546261106084 0.1276346880781568 C -0.743685544477984 0.13715425565421013 -0.7426470461969601 0.14780087562827404 -0.740409042149482 0.15765050854945906 C -0.7351038455045609 0.18098451837541318 -0.7301850668246717 0.20413336959312256 -0.7272265542798941 0.22790209962973795 C -0.7236642636647537 0.25655338166202035 -0.7238453970858623 0.28600567593431725 -0.7271178742272288 0.31468110908941416 C -0.7342505058317814 0.3772204416175923 -0.7529273741416704 0.43835095864825724 -0.7830357739170952 0.49375363438474706 C -0.8107813888438333 0.5448091080146249 -0.8484329893116569 0.5901005136661059 -0.8868493753352737 0.6333269983169458 C -0.9369549048011139 0.6897077945274235 -0.9887429624896986 0.7443738610180708 -1.038490250300457 0.8010766721994085 C -1.0674152450579706 0.8340429548412169 -1.0948710465109346 0.869227115594825 -1.1204752618814529 0.9048178202491437 C -1.1774316598523427 0.9839972763965203 -1.2222521186089408 1.0714525172950031 -1.2538739887474082 1.163657479013673 C -1.266742512020407 1.2011762483060169 -1.2786610911293688 1.2399186744876292 -1.2882490868867298 1.2784155642539612 C -1.297788780398462 1.3167071694763695 -1.30508644467558 1.3556025527691404 -1.3140384608654925 1.3939424602371775 C -1.312814803976224 1.3709183898206767 -1.3181401265568238 1.3472462642753191 -1.3200641660077133 1.3242101182974113 C -1.3230589052367128 1.2883215497950466 -1.3234936254473737 1.2523363768014244 -1.3227207895173096 1.2163351030592586 C -1.3210704627916512 1.1397035903688129 -1.3098079891858172 1.0625729544735343 -1.2904428138757147 0.98841290668444 C -1.2834470386337777 0.9616252862960109 -1.2728970231509718 0.9360572976097143 -1.2640858885108108 0.9098573545431052 C -1.2520063019164192 0.8739446349179261 -1.2375116030405764 0.8391670180650292 -1.2209560083512285 0.8050857585866178 C -1.214072938349093 0.7909170998687705 -1.2083370466806462 0.7740636413313771 -1.1982901795898095 0.7618673243100489 Z" fill="#075c99" transform="matrix(1,0,0,1,0,0)" fill-rule="evenodd"></path></g><g clip-path="url(#SvgjsClipPath515915f00ba37-2ad7-4980-95e2-1176d9c901ba)"><path d=" M -1.060866265588102 0.08086201356071909 C -1.0625487938108464 0.07546826279881147 -1.059811666558535 0.06795323841636258 -1.0593527952250594 0.06240653054329648 C -1.0581653650200125 0.04811309102424122 -1.0572596979144682 0.033582165464176805 -1.057054413370545 0.019248474073764066 C -1.0031893591199124 0.030353965381303527 -0.9500206622437648 0.044265012122462366 -0.8977978843445189 0.061746399853033096 C -0.8818702188483485 0.06707977280790434 -0.8659506037264497 0.07270295923655001 -0.850187970902845 0.07852337983484725 C -0.844291071748968 0.08070100607528907 -0.8387886409343954 0.0842351203804792 -0.8328474647220256 0.08617526057991154 C -0.8345501188804485 0.0921285123536888 -0.831603681897078 0.10061360683585396 -0.8304726043119317 0.10665138753948189 C -0.8277314518724848 0.12125476646798994 -0.8242697909357379 0.13558443267126685 -0.8228166983797314 0.1504051717051056 C -0.8186023274485992 0.1934102710634794 -0.8195361708640936 0.23708355148638804 -0.8286813960365222 0.2795130490843494 C -0.8367116443723472 0.3167540804643265 -0.8484933671186934 0.35392668366299573 -0.8662645683230381 0.38775435635185507 C -0.8756553299107477 0.4056342376088652 -0.8870103828207037 0.42219385748534877 -0.8980635466954785 0.4390110893385206 C -0.9064037344407567 0.45170250437754644 -0.9142649249168802 0.46516273015950094 -0.9238851221713273 0.47694042771871126 C -0.9741758102454123 0.5384895642114942 -1.033603673117654 0.59207688054976 -1.0890667266611802 0.6488320191638626 C -1.1143972293064672 0.6747501991309695 -1.1405689960631265 0.7000927773376637 -1.1648167233688962 0.7270293296501158 C -1.1719010527278195 0.7348945453133748 -1.1786593419287472 0.743041524076137 -1.1857275705391275 0.7509188153008033 C -1.1894307427040194 0.7550446321149493 -1.1930292600033816 0.7597983781222724 -1.1982901795898095 0.7618673243100489 C -1.1969175907765182 0.7561555837644169 -1.1936330380737443 0.7512971828915644 -1.191056918306863 0.7459195328781998 C -1.1841738483047273 0.7315415644292935 -1.175644476764069 0.7180612127116603 -1.168697003767761 0.7037234961341119 C -1.1455682784857304 0.6559847767040938 -1.1218236995719295 0.6085398959349855 -1.0983246570734095 0.5609541336161259 C -1.082839762162172 0.5296059762028897 -1.0711425683456768 0.4959312606251889 -1.0601578326522096 0.4628240964336292 C -1.0460012494957702 0.4201772387303373 -1.0337445546674053 0.3755821904533413 -1.0288298011746522 0.33080198356810075 C -1.0247683873546785 0.29379441304199727 -1.0249937978342807 0.2556960168021051 -1.0289304308530463 0.21869649665027313 C -1.0326738548892953 0.18352038627093692 -1.0393435899732364 0.14804641204355484 -1.050139141871323 0.11431534384595354 C -1.0525099770942812 0.1068969239547628 -1.0545386714107 0.09936177363663512 -1.0567364235868206 0.09189102631267942 C -1.0577547959321658 0.08841728981452546 -1.0586242363534881 0.08371989642710298 -1.060866265588102 0.08086201356071909 Z" fill="#219bd3" transform="matrix(1,0,0,1,0,0)" fill-rule="evenodd"></path></g><g clip-path="url(#SvgjsClipPath515915f00ba37-2ad7-4980-95e2-1176d9c901ba)"><path d=" M -1.1119378399665227 -0.3094845341159622 C -1.1052117522626812 -0.30476701479286084 -1.1029858237766104 -0.2907110613148151 -1.1005304596238017 -0.28325238955226667 C -1.094536955978667 -0.26503841776298914 -1.0873882236255716 -0.2470659572018567 -1.0752120325399221 -0.2320318832498231 C -1.0592561907338014 -0.2123285922203173 -1.040563221675369 -0.19370405134319307 -1.0185212969199915 -0.18086370438014432 C -0.9751177040351782 -0.15556942841907911 -0.9197230786729598 -0.15089216096733526 -0.8720729133599281 -0.16560019476137294 C -0.855819207705762 -0.17061960311965557 -0.8410749472275023 -0.17837613873024966 -0.8265601224159811 -0.1871148200019671 C -0.7987219281851206 -0.20388374960950978 -0.7763982403302403 -0.2315971630391619 -0.7631795257764307 -0.2610414069371874 C -0.7591503134535429 -0.2700135490627785 -0.7560267682361992 -0.2792272024165147 -0.7529555504516208 -0.2885535610100521 C -0.7519492536676828 -0.29160465285895204 -0.7518727751121033 -0.2969863280594524 -0.7481494770115331 -0.29718758741623996 C -0.7461650597536071 -0.29181396259001113 -0.7459195233383262 -0.2856393255237676 -0.7449856799228316 -0.2800121139079864 C -0.7419506888224747 -0.2617498398730798 -0.7422606282319277 -0.24261812541685074 -0.7446636649519716 -0.2242914483877721 C -0.750270750632074 -0.1815801876903082 -0.7698331601118285 -0.14419022438630824 -0.8005694890804305 -0.11415830316646292 C -0.8127497053532158 -0.10225582480604445 -0.8268217595798049 -0.09000315516481544 -0.842592442777681 -0.0830838584784579 C -0.8671823109899897 -0.07229233176750705 -0.8927341989277431 -0.0654334128881856 -0.9197029527372811 -0.0643466123615325 C -0.9780319395214625 -0.061991877887117686 -1.0382889909436694 -0.08712514636275281 -1.0758963143529998 -0.13190937843512912 C -1.1075181844914674 -0.1695730544643601 -1.1242871140990098 -0.21704611154341863 -1.1199721134894838 -0.2664593088219096 C -1.1190141189511746 -0.2774198933925621 -1.1177783865004989 -0.2882476467877349 -1.1158503218624738 -0.2990874757443148 C -1.115274720102061 -0.30230762545291645 -1.115375349780455 -0.3087398744958481 -1.1119378399665227 -0.3094845341159622 Z" fill="#07639f" transform="matrix(1,0,0,1,0,0)" fill-rule="evenodd"></path></g><g clip-path="url(#SvgjsClipPath515915f00ba37-2ad7-4980-95e2-1176d9c901ba)"><path d=" M -0.7481494770115331 -0.29718758741623996 C -0.7518727751121033 -0.2969863280594524 -0.7519492536676828 -0.29160465285895204 -0.7529555504516208 -0.2885535610100521 C -0.7560267682361992 -0.2792272024165147 -0.7591503134535429 -0.2700135490627785 -0.7631795257764307 -0.2610414069371874 C -0.7763982403302403 -0.2315971630391619 -0.7987219281851206 -0.20388374960950978 -0.8265601224159811 -0.1871148200019671 C -0.8410749472275023 -0.17837613873024966 -0.855819207705762 -0.17061960311965557 -0.8720729133599281 -0.16560019476137294 C -0.9197230786729598 -0.15089216096733526 -0.9751177040351782 -0.15556942841907911 -1.0185212969199915 -0.18086370438014432 C -1.040563221675369 -0.19370405134319307 -1.0592561907338014 -0.2123285922203173 -1.0752120325399221 -0.2320318832498231 C -1.0873882236255716 -0.2470659572018567 -1.094536955978667 -0.26503841776298914 -1.1005304596238017 -0.28325238955226667 C -1.1029858237766104 -0.2907110613148151 -1.1052117522626812 -0.30476701479286084 -1.1119378399665227 -0.3094845341159622 C -1.1136767208091676 -0.3141215496963484 -1.1107343090129331 -0.32000234810168204 -1.1090195792931026 -0.3244662806352309 C -1.1043543874027661 -0.33659819466238733 -1.0990089388864874 -0.3483960181572763 -1.091715299796505 -0.3591794944939558 C -1.0731712626620957 -0.38659906926269805 -1.046633203876083 -0.4108548469427393 -1.0164563759193506 -0.4248423722394774 C -0.9972361073461351 -0.43375413655803224 -0.9765868973397278 -0.43851190775249105 -0.9556559242338176 -0.441188657197766 C -0.8876745386981029 -0.4498790362238545 -0.8157162682722652 -0.41873213816740595 -0.7766800034297427 -0.36196089880476034 C -0.7679735236551115 -0.34929766007568475 -0.7605993808224136 -0.3355798223170421 -0.755318335300307 -0.3211334256868283 C -0.7534425980950468 -0.31599728690160883 -0.7514018282172201 -0.3108047954964888 -0.749948735661214 -0.3055318003486538 C -0.7492201767896431 -0.30287920202619323 -0.7493369072165796 -0.29962685082050566 -0.7481494770115331 -0.29718758741623996 Z" fill="#26a2d8" transform="matrix(1,0,0,1,0,0)" fill-rule="evenodd"></path></g><g clip-path="url(#SvgjsClipPath515915f00ba37-2ad7-4980-95e2-1176d9c901ba)"><path d=" M -0.6330291249290267 0.3482592201758571 C -0.623956353125042 0.37956712571773565 -0.6151250925492022 0.4107744015812207 -0.608330576664053 0.44269816075486923 C -0.5968306170172095 0.49676849954942526 -0.5900884285648251 0.5524126865140604 -0.5854675137329819 0.6074571205954682 C -0.583132905194246 0.635259088142107 -0.5818931475564342 0.663463574402321 -0.5812893694860715 0.6913379953174033 C -0.5809069767081749 0.7091655491416484 -0.5817482408195471 0.727073606708609 -0.580758044784152 0.7448287071644109 C -0.5857251257096701 0.7795700973330859 -0.588337472160773 0.8143034371274893 -0.5957599172390997 0.8487067115767615 C -0.6004492602522506 0.8704386969226863 -0.6082540981084739 0.8914541989584472 -0.6155598127598634 0.9123972476257645 C -0.6282592781731611 0.9488131156429125 -0.6430236645870993 0.9856637038707214 -0.6637815546461721 1.0183119967288057 C -0.6771733522468188 1.039367750635924 -0.6918652852923133 1.0591797217180954 -0.7109527226900489 1.075445502933669 C -0.7169623270837266 1.0805655409703452 -0.7257573609753449 1.0890345347039672 -0.7335984255157897 1.0907170629267118 C -0.7345886215511848 1.0866918757909596 -0.7340130197907722 1.0822118425088678 -0.7341861028376091 1.0780699249461791 C -0.734648999358221 1.06718179374397 -0.7346852260424426 1.055842841582557 -0.736379829826594 1.0450754659944201 C -0.7412100543894964 1.0143995148328546 -0.7505887404157985 0.9842267120632582 -0.753953796861287 0.9534581815975702 C -0.758144016669605 0.9675745128826523 -0.7588524496054974 0.9829185262441387 -0.7617747354660531 0.9973649228743524 C -0.7673254685262552 1.024816699140181 -0.7740193547330105 1.0521799212890226 -0.7813250693844005 1.0792171032798685 C -0.8006218165131953 1.1505997719452936 -0.8277717037438421 1.2193419178496654 -0.8510654616984388 1.2894002999474283 C -0.8613538400174208 1.3203378882728176 -0.8752165845129505 1.3496372254339564 -0.8869822065107533 1.3799629853147113 C -0.8894697721606479 1.3863831587962356 -0.8922109246000951 1.3927469796578593 -0.8942677952264644 1.3993201102505424 C -0.8968680661161601 1.407636146873006 -0.898574745461719 1.4164392311388954 -0.9037430857440247 1.4236402909247559 C -0.9100586043600194 1.432435324816374 -0.919783456479996 1.4382637957889426 -0.9279062841199437 1.445171016913893 C -0.9560986948187502 1.4691450314944314 -0.9883203178404447 1.4893152442316844 -1.0205016889907814 1.5074165107811608 C -1.029075337589933 1.5122346597826557 -1.037677162499035 1.5171534384625451 -1.046762009864427 1.5209451647444239 C -1.0503404012281108 1.5224385091717874 -1.0549814419956327 1.5246080850379575 -1.0589221002015339 1.5242820448799617 C -1.07196370652137 1.5190774779134342 -1.0710419386672831 1.5085475883663075 -1.06992696183068 1.4967819663685045 C -1.069065571783629 1.487685043441705 -1.0679707208827043 1.4786122716377201 -1.0668637944203725 1.4695394998337352 C -1.0603349408861826 1.4158676545656184 -1.0538906162818438 1.3623970686542897 -1.0451197335130404 1.3090069864856757 C -1.025054175641317 1.186830481354197 -0.9938871516491896 1.067117390749798 -0.9431416174287646 0.9539452292409962 C -0.9150458112212161 0.8912811159116099 -0.8811658110995919 0.829760155728777 -0.8433411275849307 0.7724414909156692 C -0.8211341701569872 0.7387949516479184 -0.7972970119390643 0.7061305580412918 -0.7742085385283908 0.6730757212824965 C -0.728655495713086 0.607851588934772 -0.6863427285420616 0.5385298160828518 -0.6592773702412653 0.4633755470712271 C -0.6503575555484389 0.43859649506353815 -0.6424963650723154 0.41291580113744075 -0.6385396061178714 0.38686076480771825 C -0.6372273951116163 0.3782267384015304 -0.6365954407313033 0.3694437800713195 -0.6358024788655601 0.3607493758580953 C -0.6355931691345007 0.35847514512639533 -0.6347599553974004 0.3465605912045696 -0.6330291249290267 0.3482592201758571 Z" fill="#054f88" transform="matrix(1,0,0,1,0,0)" fill-rule="evenodd"></path></g><g clip-path="url(#SvgjsClipPath515915f00ba37-2ad7-4980-95e2-1176d9c901ba)"><path d=" M -0.7335984255157897 1.0907170629267118 C -0.7257573609753449 1.0890345347039672 -0.7169623270837266 1.0805655409703452 -0.7109527226900489 1.075445502933669 C -0.6918652852923133 1.0591797217180954 -0.6771733522468188 1.039367750635924 -0.6637815546461721 1.0183119967288057 C -0.6430236645870993 0.9856637038707214 -0.6282592781731611 0.9488131156429125 -0.6155598127598634 0.9123972476257645 C -0.6082540981084739 0.8914541989584472 -0.6004492602522506 0.8704386969226863 -0.5957599172390997 0.8487067115767615 C -0.588337472160773 0.8143034371274893 -0.5857251257096701 0.7795700973330859 -0.580758044784152 0.7448287071644109 C -0.5743298209283565 0.7384487855542439 -0.5713270313250856 0.7267717176734274 -0.5673944234934556 0.7187052426533806 C -0.5562446551274227 0.695818028599495 -0.5477394347095788 0.6723713135337399 -0.5408563647074431 0.6478740246255534 C -0.5316064846694852 0.614956044229374 -0.5218252799296077 0.5816516458681624 -0.5160008341441746 0.5479125272962897 C -0.5070930950127557 0.49633780452589993 -0.5049355947079928 0.4451011974749133 -0.5062236545914334 0.39291464625988914 C -0.506891835655968 0.3659861443217086 -0.5108244434875979 0.33991500724344315 -0.5166770655829813 0.31368286267974765 C -0.5184843746069336 0.3055761357883432 -0.519728157431881 0.2973647540314093 -0.5206781015959185 0.2891211707773893 C -0.5211691744264801 0.28485044722635644 -0.5220386148478029 0.2808534364005548 -0.5200380968413341 0.2769490048788755 C -0.5154936605650702 0.2780800824640217 -0.5108244434875979 0.28432314771157297 -0.5073587573637155 0.2874104662446947 C -0.4974084947641364 0.29626990313048474 -0.4874059047317929 0.3049602821565732 -0.4778058334130244 0.3142061370073955 C -0.46306559812190096 0.3283989468480569 -0.4487721586028455 0.34321566069475984 -0.4354970914291356 0.35879313491011977 C -0.4298940309361692 0.3653662655028027 -0.4226486940918157 0.3718629175399064 -0.4193721917633133 0.3800219718640756 C -0.41527857644625366 0.39020972050466385 -0.41763331092066824 0.40504656028704566 -0.4173475226340302 0.41587028849508245 C -0.4166592156338167 0.44214268493013553 -0.4160876390605397 0.4683466531838807 -0.4160836138734041 0.4946512511160197 C -0.41607556349913244 0.5358087895790833 -0.41687657573914727 0.5770106051006405 -0.4219845382144163 0.6178863804642016 C -0.4274185408476816 0.6613946282145444 -0.4384395032253705 0.7038241258125058 -0.4497704050125122 0.7460966411121726 C -0.4798868551622082 0.8584235133224667 -0.5269895950247776 0.9659845639640303 -0.5923344829865749 1.0625327026021767 C -0.6221973463467185 1.1066487536100178 -0.6537185868067921 1.148965545968178 -0.6900459007069535 1.188046087869194 C -0.6988691109085217 1.197537479135297 -0.7077043966714973 1.2071818275125588 -0.7171555360662427 1.2160533399597562 C -0.7207741793012838 1.2194546230894665 -0.7255561016185572 1.224767870108659 -0.7306882152166407 1.2256695120270675 C -0.7327048339716529 1.226019703307878 -0.7346047222997276 1.225093910266655 -0.7363315275809652 1.2241681172254317 C -0.7445952367706641 1.2197283358146975 -0.7425705676413807 1.2102007178643728 -0.7415119434246777 1.2023999051952854 C -0.7378369475697364 1.1753466224558968 -0.7365166861892096 1.1483778686463586 -0.7346691252938997 1.1211595532344039 C -0.7342062287732882 1.1143288106650329 -0.7340693724106726 1.107441715475761 -0.734157926527659 1.1005948721578471 C -0.7341941532118808 1.0976202588645265 -0.7350152913875743 1.0933857619977152 -0.7335984255157897 1.0907170629267118 Z" fill="#08829d" transform="matrix(1,0,0,1,0,0)" fill-rule="evenodd"></path></g><g clip-path="url(#SvgjsClipPath515915f00ba37-2ad7-4980-95e2-1176d9c901ba)"><path d=" M -0.6754908240240742 -0.09200367317128422 C -0.6707008513325297 -0.0842149360636042 -0.6696985797357273 -0.07350793828250402 -0.666486480401397 -0.06495441561903115 C -0.6618736159438257 -0.05266551929358043 -0.6542619870701187 -0.04104480403266453 -0.6457768925879535 -0.031102591807357194 C -0.607191448704635 0.014108310101408672 -0.5455457077205939 0.03076050928201457 -0.48963988359213517 0.011326905790604136 C -0.47757237255915097 0.007132660795150514 -0.4657262468186327 0.001795262653143559 -0.45559485079794526 -0.006102154507201751 C -0.43920026359402753 -0.018878098476078464 -0.4261747580227344 -0.03624678096684819 -0.4179472755172573 -0.05532214280317671 C -0.4152423497620319 -0.06159740954781401 -0.41283126266771664 -0.06819469126331146 -0.4108951476554199 -0.07475172110745132 C -0.4099653294270613 -0.07789941744760942 -0.41015048803530574 -0.08128057464164096 -0.40689411164248224 -0.08259278564789618 C -0.405054601121444 -0.08078547662394353 -0.4047164854020404 -0.07604783136516358 -0.4041569843901711 -0.07355624052813303 C -0.4020920633895302 -0.06433051161298953 -0.4002364521199486 -0.05512893382066053 -0.4000351927631609 -0.045641567741693256 C -0.3991939286517887 -0.005872718840464031 -0.4134471162994866 0.030780635217693253 -0.44150669582281354 0.059198456396102106 C -0.4849907924503418 0.10323400366122848 -0.5544574720391486 0.11169897220771474 -0.6092483193310043 0.08383260166690398 C -0.6263996417164435 0.07511002114372956 -0.6407333331068563 0.062301875677766794 -0.6532275139762305 0.04781120198905986 C -0.6777087021358736 0.01942960749487277 -0.6920383683391507 -0.020194334669469405 -0.6863588292906047 -0.05782983438875011 C -0.6850184419743992 -0.06669329646167588 -0.6827965386754642 -0.07524681912514886 -0.6805867109379364 -0.08391304702842284 C -0.6797293460780212 -0.08727407828677569 -0.6792060717503736 -0.0916655574518811 -0.6754908240240742 -0.09200367317128422 Z" fill="#068da4" transform="matrix(1,0,0,1,0,0)" fill-rule="evenodd"></path></g><g clip-path="url(#SvgjsClipPath515915f00ba37-2ad7-4980-95e2-1176d9c901ba)"><path d=" M -0.40689411164248224 -0.08259278564789618 C -0.41015048803530574 -0.08128057464164096 -0.4099653294270613 -0.07789941744760942 -0.4108951476554199 -0.07475172110745132 C -0.41283126266771664 -0.06819469126331146 -0.4152423497620319 -0.06159740954781401 -0.4179472755172573 -0.05532214280317671 C -0.4261747580227344 -0.03624678096684819 -0.43920026359402753 -0.018878098476078464 -0.45559485079794526 -0.006102154507201751 C -0.4657262468186327 0.001795262653143559 -0.47757237255915097 0.007132660795150514 -0.48963988359213517 0.011326905790604136 C -0.5455457077205939 0.03076050928201457 -0.607191448704635 0.014108310101408672 -0.6457768925879535 -0.031102591807357194 C -0.6542619870701187 -0.04104480403266453 -0.6618736159438257 -0.05266551929358043 -0.666486480401397 -0.06495441561903115 C -0.6696985797357273 -0.07350793828250402 -0.6707008513325297 -0.0842149360636042 -0.6754908240240742 -0.09200367317128422 C -0.6765735993635917 -0.09625427078663829 -0.6749756000706981 -0.09912422921442948 -0.673293071847954 -0.10311721485309538 C -0.6701775770048819 -0.11049538287292865 -0.6667521427523568 -0.11767229153597436 -0.662364688774387 -0.12437422811700144 C -0.6418523351305954 -0.1557143351559661 -0.6108463186238982 -0.17566316260075276 -0.5741124608230255 -0.18260661040992493 C -0.5188265155134726 -0.19305197102720129 -0.46201904946660544 -0.17305886652392133 -0.428219553087696 -0.1272602872933356 C -0.4208977376877634 -0.11734222619084278 -0.4146385716916692 -0.10626491119325338 -0.4102752688365139 -0.09472469967505254 C -0.40878192440914995 -0.09077599109487994 -0.40841965756693277 -0.08646501567248954 -0.40689411164248224 -0.08259278564789618 Z" fill="#28bbcc" transform="matrix(1,0,0,1,0,0)" fill-rule="evenodd"></path></g><g clip-path="url(#SvgjsClipPath515915f00ba37-2ad7-4980-95e2-1176d9c901ba)"><path d=" M -0.5200380968413341 0.2769490048788755 C -0.5220386148478029 0.2808534364005548 -0.5211691744264801 0.28485044722635644 -0.5206781015959185 0.2891211707773893 C -0.519728157431881 0.2973647540314093 -0.5184843746069336 0.3055761357883432 -0.5166770655829813 0.31368286267974765 C -0.5108244434875979 0.33991500724344315 -0.506891835655968 0.3659861443217086 -0.5062236545914334 0.39291464625988914 C -0.5049355947079928 0.4451011974749133 -0.5070930950127557 0.49633780452589993 -0.5160008341441746 0.5479125272962897 C -0.5218252799296077 0.5816516458681624 -0.5316064846694852 0.614956044229374 -0.5408563647074431 0.6478740246255534 C -0.5477394347095788 0.6723713135337399 -0.5562446551274227 0.695818028599495 -0.5673944234934556 0.7187052426533806 C -0.5713270313250856 0.7267717176734274 -0.5743298209283565 0.7384487855542439 -0.580758044784152 0.7448287071644109 C -0.5817482408195471 0.727073606708609 -0.5809069767081749 0.7091655491416484 -0.5812893694860715 0.6913379953174033 C -0.5818931475564342 0.663463574402321 -0.583132905194246 0.635259088142107 -0.5854675137329819 0.6074571205954682 C -0.5900884285648251 0.5524126865140604 -0.5968306170172095 0.49676849954942526 -0.608330576664053 0.44269816075486923 C -0.6151250925492022 0.4107744015812207 -0.623956353125042 0.37956712571773565 -0.6330291249290267 0.3482592201758571 C -0.6350014666255452 0.342676285618569 -0.6336691296836114 0.33490364925943206 -0.6333954169583804 0.32907115309972756 C -0.6328077396365608 0.3166856522830187 -0.6323287423674062 0.30449738563596174 -0.6325823291569586 0.2920877336964385 C -0.6330532760518417 0.26919649445541716 -0.6344781922978975 0.2466071442495772 -0.636889279392213 0.2238326354354926 C -0.6380807347843958 0.21257821220393025 -0.6407293079197205 0.20153309870342684 -0.6416228994638573 0.19024647397477834 C -0.6396062807088458 0.19257705732637886 -0.6346069982862419 0.19444474415736768 -0.6318175436011657 0.19617557462574098 C -0.6250874307101884 0.20035371887265152 -0.6183412170706679 0.20461236686227702 -0.6117761368522567 0.2090440978987399 C -0.5893357185704398 0.22420295265198198 -0.567487002797578 0.24023124782654615 -0.5459160249370834 0.2566097342819209 C -0.5396890604380751 0.26133932916642943 -0.5332809625179578 0.26585156394560716 -0.5271787788201578 0.27074216631554593 C -0.5248763717785079 0.27258570202372034 -0.5216240205728204 0.274457414041845 -0.5200380968413341 0.2769490048788755 Z" fill="#26b7c6" transform="matrix(1,0,0,1,0,0)" fill-rule="evenodd"></path></g></g><g><path d=" M 0.9067500000000001 0.6232499999999999 Q 0.9615 0.6944999999999999 0.9615 0.7859999999999998 Q 0.9615 0.9209999999999998 0.8685 0.9974999999999998 Q 0.7755 1.0739999999999998 0.6075 1.0739999999999998 L 0.084 1.0739999999999998 L 0.084 0.016499999999999737 L 0.591 0.016499999999999737 Q 0.753 0.016499999999999737 0.8452500000000001 0.0884999999999998 Q 0.9375 0.16049999999999986 0.9375 0.2909999999999998 Q 0.9375 0.3839999999999998 0.88875 0.4462499999999998 Q 0.84 0.5084999999999998 0.759 0.5309999999999998 Q 0.852 0.5519999999999998 0.9067500000000001 0.6232499999999999 M 0.378 0.4364999999999998 L 0.5265 0.4364999999999998 Q 0.6375000000000001 0.4364999999999998 0.6375000000000001 0.34499999999999986 Q 0.6375000000000001 0.25049999999999983 0.5265 0.25049999999999983 L 0.378 0.25049999999999983 L 0.378 0.4364999999999998 M 0.66 0.7439999999999998 Q 0.66 0.6959999999999998 0.63075 0.6704999999999999 Q 0.6015 0.6449999999999998 0.5475 0.6449999999999998 L 0.378 0.6449999999999998 L 0.378 0.8369999999999999 L 0.549 0.8369999999999999 Q 0.66 0.8369999999999999 0.66 0.7439999999999998 M 1.32153076171875 1.0147499999999998 Q 1.19703076171875 0.9449999999999998 1.1242807617187498 0.8212499999999998 Q 1.05153076171875 0.6974999999999998 1.05153076171875 0.5414999999999999 Q 1.05153076171875 0.38549999999999984 1.1242807617187498 0.2617499999999998 Q 1.19703076171875 0.1379999999999998 1.32153076171875 0.06899999999999973 Q 1.4460307617187498 -2.220446049250313e-16 1.5945307617187499 -2.220446049250313e-16 Q 1.74453076171875 -2.220446049250313e-16 1.8682807617187498 0.06899999999999973 Q 1.99203076171875 0.1379999999999998 2.06403076171875 0.2617499999999998 Q 2.13603076171875 0.38549999999999984 2.13603076171875 0.5414999999999999 Q 2.13603076171875 0.6974999999999998 2.06403076171875 0.8212499999999998 Q 1.99203076171875 0.9449999999999998 1.8675307617187498 1.0147499999999998 Q 1.74303076171875 1.0844999999999998 1.5945307617187499 1.0844999999999998 Q 1.4460307617187498 1.0844999999999998 1.32153076171875 1.0147499999999998 M 1.77228076171875 0.7379999999999998 Q 1.83753076171875 0.6644999999999999 1.83753076171875 0.5414999999999999 Q 1.83753076171875 0.41549999999999987 1.77228076171875 0.3427499999999998 Q 1.70703076171875 0.2699999999999998 1.5945307617187499 0.2699999999999998 Q 1.48053076171875 0.2699999999999998 1.41603076171875 0.3427499999999998 Q 1.35153076171875 0.41549999999999987 1.35153076171875 0.5414999999999999 Q 1.35153076171875 0.6659999999999998 1.41603076171875 0.7387499999999998 Q 1.48053076171875 0.8114999999999999 1.5945307617187499 0.8114999999999999 Q 1.70703076171875 0.8114999999999999 1.77228076171875 0.7379999999999998 M 2.49901171875 1.0147499999999998 Q 2.37451171875 0.9449999999999998 2.30176171875 0.8212499999999998 Q 2.22901171875 0.6974999999999998 2.22901171875 0.5414999999999999 Q 2.22901171875 0.38549999999999984 2.30176171875 0.2617499999999998 Q 2.37451171875 0.1379999999999998 2.49901171875 0.06899999999999973 Q 2.6235117187499997 -2.220446049250313e-16 2.77201171875 -2.220446049250313e-16 Q 2.92201171875 -2.220446049250313e-16 3.0457617187499997 0.06899999999999973 Q 3.16951171875 0.1379999999999998 3.24151171875 0.2617499999999998 Q 3.31351171875 0.38549999999999984 3.31351171875 0.5414999999999999 Q 3.31351171875 0.6974999999999998 3.24151171875 0.8212499999999998 Q 3.16951171875 0.9449999999999998 3.0450117187499997 1.0147499999999998 Q 2.92051171875 1.0844999999999998 2.77201171875 1.0844999999999998 Q 2.6235117187499997 1.0844999999999998 2.49901171875 1.0147499999999998 M 2.9497617187499996 0.7379999999999998 Q 3.01501171875 0.6644999999999999 3.01501171875 0.5414999999999999 Q 3.01501171875 0.41549999999999987 2.9497617187499996 0.3427499999999998 Q 2.88451171875 0.2699999999999998 2.77201171875 0.2699999999999998 Q 2.6580117187499996 0.2699999999999998 2.59351171875 0.3427499999999998 Q 2.5290117187499996 0.41549999999999987 2.5290117187499996 0.5414999999999999 Q 2.5290117187499996 0.6659999999999998 2.59351171875 0.7387499999999998 Q 2.6580117187499996 0.8114999999999999 2.77201171875 0.8114999999999999 Q 2.88451171875 0.8114999999999999 2.9497617187499996 0.7379999999999998 M 3.53849267578125 0.9967499999999998 Q 3.4199926757812498 0.9089999999999998 3.41099267578125 0.7454999999999998 L 3.7244926757812498 0.7454999999999998 Q 3.7289926757812495 0.8009999999999998 3.7574926757812497 0.8264999999999998 Q 3.78599267578125 0.8519999999999999 3.83099267578125 0.8519999999999999 Q 3.8714926757812496 0.8519999999999999 3.8977426757812497 0.8317499999999999 Q 3.9239926757812498 0.8114999999999999 3.9239926757812498 0.7754999999999999 Q 3.9239926757812498 0.7289999999999999 3.88049267578125 0.7034999999999998 Q 3.8369926757812496 0.6779999999999998 3.73949267578125 0.6464999999999999 Q 3.6359926757812495 0.6119999999999999 3.5722426757812498 0.5797499999999998 Q 3.5084926757812496 0.5474999999999999 3.4612426757812496 0.48524999999999985 Q 3.4139926757812495 0.4229999999999998 3.4139926757812495 0.3224999999999998 Q 3.4139926757812495 0.2204999999999998 3.4649926757812497 0.14774999999999983 Q 3.51599267578125 0.07499999999999984 3.6059926757812497 0.03749999999999987 Q 3.6959926757812496 -2.220446049250313e-16 3.80999267578125 -2.220446049250313e-16 Q 3.99449267578125 -2.220446049250313e-16 4.1047426757812495 0.08624999999999983 Q 4.21499267578125 0.17249999999999988 4.2224926757812495 0.3284999999999998 L 3.90299267578125 0.3284999999999998 Q 3.90149267578125 0.28049999999999986 3.8737426757812496 0.25649999999999984 Q 3.8459926757812495 0.23249999999999982 3.8024926757812496 0.23249999999999982 Q 3.7694926757812497 0.23249999999999982 3.74849267578125 0.2519999999999998 Q 3.7274926757812494 0.27149999999999985 3.7274926757812494 0.3074999999999998 Q 3.7274926757812494 0.3374999999999998 3.7507426757812494 0.35924999999999985 Q 3.77399267578125 0.3809999999999998 3.80849267578125 0.3967499999999998 Q 3.84299267578125 0.41249999999999987 3.9104926757812497 0.4364999999999998 Q 4.0109926757812495 0.47099999999999986 4.076242675781249 0.5047499999999998 Q 4.14149267578125 0.5384999999999999 4.18874267578125 0.5992499999999998 Q 4.23599267578125 0.6599999999999998 4.23599267578125 0.7529999999999999 Q 4.23599267578125 0.8474999999999998 4.18874267578125 0.9224999999999999 Q 4.14149267578125 0.9974999999999998 4.052242675781249 1.041 Q 3.9629926757812495 1.0844999999999998 3.8414926757812498 1.0844999999999998 Q 3.6569926757812494 1.0844999999999998 3.53849267578125 0.9967499999999998 M 5.165985351562499 0.016499999999999737 L 5.165985351562499 0.25049999999999983 L 4.883985351562499 0.25049999999999983 L 4.883985351562499 1.0739999999999998 L 4.5899853515624995 1.0739999999999998 L 4.5899853515624995 0.25049999999999983 L 4.3109853515625 0.25049999999999983 L 4.3109853515625 0.016499999999999737 L 5.165985351562499 0.016499999999999737 M 5.5664912109374995 0.2519999999999998 L 5.5664912109374995 0.4244999999999999 L 5.9039912109375 0.4244999999999999 L 5.9039912109375 0.6479999999999999 L 5.5664912109374995 0.6479999999999999 L 5.5664912109374995 0.8384999999999998 L 5.9489912109375 0.8384999999999998 L 5.9489912109375 1.0739999999999998 L 5.272491210937499 1.0739999999999998 L 5.272491210937499 0.016499999999999737 L 5.9489912109375 0.016499999999999737 L 5.9489912109375 0.2519999999999998 L 5.5664912109374995 0.2519999999999998 M 6.62695166015625 1.0739999999999998 L 6.41695166015625 0.6839999999999998 L 6.385451660156249 0.6839999999999998 L 6.385451660156249 1.0739999999999998 L 6.091451660156249 1.0739999999999998 L 6.091451660156249 0.016499999999999737 L 6.55495166015625 0.016499999999999737 Q 6.682451660156249 0.016499999999999737 6.77095166015625 0.06074999999999986 Q 6.85945166015625 0.10499999999999987 6.90445166015625 0.1822499999999998 Q 6.9494516601562495 0.25949999999999984 6.9494516601562495 0.3554999999999998 Q 6.9494516601562495 0.4634999999999998 6.890201660156249 0.5452499999999998 Q 6.830951660156249 0.6269999999999998 6.71695166015625 0.6614999999999998 L 6.95545166015625 1.0739999999999998 L 6.62695166015625 1.0739999999999998 M 6.385451660156249 0.4829999999999999 L 6.53095166015625 0.4829999999999999 Q 6.590951660156249 0.4829999999999999 6.6209516601562495 0.4544999999999998 Q 6.650951660156249 0.4259999999999998 6.650951660156249 0.3719999999999998 Q 6.650951660156249 0.32099999999999984 6.6202016601562494 0.29174999999999984 Q 6.589451660156249 0.26249999999999984 6.53095166015625 0.26249999999999984 L 6.385451660156249 0.26249999999999984 L 6.385451660156249 0.4829999999999999" fill="url(#gradient-294f95f3-bd6c-4e8d-ab9b-c12a0141bcf9)" fill-rule="nonzero"></path></g><g></g></g><defs><clipPath id="SvgjsClipPath51593"><path d=" M -2.443743560221101 -0.5894207029347427 h 2.043743560221101 v 2.2528414058694852 h -2.043743560221101 Z"></path></clipPath><clipPath id="SvgjsClipPath515915f00ba37-2ad7-4980-95e2-1176d9c901ba"><path d=" M -2.443743560221101 -0.5894207029347427 L -0.3999999999999999 -0.5894207029347427 L -0.3999999999999999 1.6634207029347425 L -2.443743560221101 1.6634207029347425 Z"></path></clipPath><linearGradient id="gradient-294f95f3-bd6c-4e8d-ab9b-c12a0141bcf9" y1="0" x1="0" y2="1" x2="1"><stop stop-color="#f2c37c" offset="0"></stop><stop stop-color="#a5497e" offset="1"></stop></linearGradient></defs></svg>