<svg xmlns="http://www.w3.org/2000/svg" version="1.1" xmlns:xlink="http://www.w3.org/1999/xlink" xmlns:svgjs="http://svgjs.dev/svgjs" viewBox="0 0 8.620031124154753 3.406042698566054"><g transform="matrix(0.7726579350155228,0,0,0.7726579350155228,3.361056517781572,1.2602883525191326)"><rect width="9.62220394271482" height="9.62220394271482" x="-3.5829271202485042" y="-4.23810197135741" fill="#ffffff"></rect><g transform="matrix(1,0,0,1,0,0)" clip-path="url(#SvgjsClipPath82933)"><g clip-path="url(#SvgjsClipPath8292845d8c439-87b4-465a-ba71-0eff24f337b6)"><path d=" M -2.573572898115848 -0.09279843204643334 C -2.5690330492036937 -0.09204250639975498 -2.5705663756574677 -0.0842298430400501 -2.569819040074956 -0.08057906576915996 C -2.567435297268669 -0.0689137586306453 -2.562753712297763 -0.057553398770051944 -2.5568952885360052 -0.04722384660947465 C -2.5406901324853366 -0.0186704733190306 -2.5131804519911585 0.00442820922549525 -2.482131665060259 0.01547932677608388 C -2.470818550552583 0.01950377183822971 -2.459320749665321 0.021131588997838513 -2.4474106256980526 0.02196912025410136 C -2.390205093379246 0.025984975252080544 -2.3392574228059537 0.0007044164091873917 -2.307530020805877 -0.047228141641557975 C -2.29915900327533 -0.059868421063004607 -2.292226821492722 -0.0757901049961689 -2.292381442647725 -0.09111907450182388 C -2.292424392968559 -0.09497171828063389 -2.294477418304424 -0.10682600683081811 -2.2904443831781114 -0.10832067799584144 C -2.282627424786323 -0.09699897342399866 -2.28048849880879 -0.07998205630956734 -2.278362457927507 -0.06670611213977762 C -2.268900502247776 -0.007670896153442852 -2.2959334341806965 0.04999849963037062 -2.3455453497760517 0.08265362856046177 C -2.3925716560571995 0.1136079247855265 -2.4590587527082337 0.11479335364054499 -2.5074594692560694 0.0860123436496808 C -2.5434604281791295 0.06461019877809793 -2.569574223246202 0.027604202347522366 -2.5773697064775734 -0.013555090107701062 C -2.582162962282648 -0.03887000920726136 -2.582669776068489 -0.06834681439563639 -2.573572898115848 -0.09279843204643334 Z" fill="#c61e3a" transform="matrix(1,0,0,1,0,0)" fill-rule="evenodd"></path></g><g clip-path="url(#SvgjsClipPath8292845d8c439-87b4-465a-ba71-0eff24f337b6)"><path d=" M -2.2904443831781114 -0.10832067799584144 C -2.294477418304424 -0.10682600683081811 -2.292424392968559 -0.09497171828063389 -2.292381442647725 -0.09111907450182388 C -2.292226821492722 -0.0757901049961689 -2.29915900327533 -0.059868421063004607 -2.307530020805877 -0.047228141641557975 C -2.3392574228059537 0.0007044164091873917 -2.390205093379246 0.025984975252080544 -2.4474106256980526 0.02196912025410136 C -2.459320749665321 0.021131588997838513 -2.470818550552583 0.01950377183822971 -2.482131665060259 0.01547932677608388 C -2.5131804519911585 0.00442820922549525 -2.5406901324853366 -0.0186704733190306 -2.5568952885360052 -0.04722384660947465 C -2.562753712297763 -0.057553398770051944 -2.567435297268669 -0.0689137586306453 -2.569819040074956 -0.08057906576915996 C -2.5705663756574677 -0.0842298430400501 -2.5690330492036937 -0.09204250639975498 -2.573572898115848 -0.09279843204643334 C -2.560833832956483 -0.1264328282915398 -2.5417037600570187 -0.15533409918073926 -2.5116213553448845 -0.17595454821314327 C -2.464685244737488 -0.20812863354989364 -2.3923526094209464 -0.20801266768364185 -2.3451287316639617 -0.17675771921273903 C -2.3268877304057614 -0.1646886790583847 -2.3117863976005264 -0.14705757235602718 -2.3005591837345185 -0.12843001821032085 C -2.296654999570708 -0.12195310982855345 -2.2940693902565013 -0.11491355224386057 -2.2904443831781114 -0.10832067799584144 Z" fill="#f53756" transform="matrix(1,0,0,1,0,0)" fill-rule="evenodd"></path></g><g clip-path="url(#SvgjsClipPath8292845d8c439-87b4-465a-ba71-0eff24f337b6)"><path d=" M -2.449566731803919 0.2969671394579614 C -2.4507521606589378 0.31313364021987955 -2.4566363546131957 0.32867306629762105 -2.459479665852407 0.34459475023078545 C -2.463607191684554 0.3676805476790611 -2.465363859806665 0.3910884725335917 -2.4670947577362754 0.4144319719068714 C -2.469594466408814 0.4481823340182296 -2.4668628260037715 0.48249105030043005 -2.4643201670103987 0.5161383316417865 C -2.46011533060075 0.571896438148487 -2.4514823161131156 0.628273029275197 -2.435783973848288 0.6820425359272833 C -2.427868229718582 0.7091527784377047 -2.4218294146093213 0.7370060614985547 -2.412285853320006 0.7636180802873018 C -2.4088970730062034 0.7730757409349489 -2.405534062884901 0.7872708219705864 -2.397287601284773 0.7933697675290143 C -2.398322704016872 0.8029949344279141 -2.3955781785155796 0.8145442757001771 -2.394242423537642 0.8241007220857424 C -2.391042624635509 0.8469073424485971 -2.3868592633862775 0.8697783882927028 -2.3807431376995156 0.8919879991959647 C -2.3628371489438207 0.9569933097782257 -2.345042831022294 1.021259874842142 -2.3120097392688637 1.0806043331384814 C -2.301057407456193 1.100275580080454 -2.287197338923061 1.118087078130314 -2.275497671527879 1.1372901665751962 C -2.271945679994907 1.1431185251123706 -2.265786603987311 1.1550243540475553 -2.2581929872638598 1.1552691708763092 C -2.2563117632113308 1.1582713983026058 -2.2562688128904966 1.1639236605243604 -2.2554141015058997 1.1674584719289989 C -2.253159209662115 1.1767529213574766 -2.2509000227862463 1.1861117962672056 -2.2482585780549553 1.1953031649256816 C -2.2419491759244403 1.217237893775606 -2.2356913141789265 1.2391855077217808 -2.2293862070804953 1.2611202365717054 C -2.225924411221275 1.2731678015656427 -2.2204568353791063 1.286984919777941 -2.220143298037018 1.2995822488785536 C -2.2231584105595648 1.3025157557915157 -2.2291328001875748 1.3049037936298862 -2.2333118664047227 1.3044614053252963 C -2.238908293209393 1.3014248176423322 -2.2437831546240523 1.2959014063830796 -2.248331593600373 1.291503293529678 C -2.2573855212321807 1.2827586082078755 -2.2658553245006456 1.2734899289718977 -2.2743895532503617 1.2642513149605041 C -2.3057389924270995 1.2303248565337264 -2.334666033508799 1.1937182980869072 -2.361041825532959 1.1558575902717347 C -2.399735769572311 1.1003228254333717 -2.432807516614492 1.0421552059278836 -2.4611719084932666 0.9807104769427613 C -2.4895105301795404 0.9193215833747233 -2.5144045361349274 0.8560901210429064 -2.531958332259784 0.790689667508973 C -2.5404753808811664 0.7589450853805626 -2.5458527610495834 0.7263028415467214 -2.550852178394661 0.6938538741566336 C -2.5550827849968103 0.6663656688228727 -2.5593048015347923 0.6389075287136958 -2.561263336164823 0.611131556230347 C -2.565008604141548 0.5579762391661871 -2.5646907717673764 0.503661263439509 -2.5624101097310907 0.4504329308299315 C -2.561984901554834 0.4405328818776939 -2.5611173050739873 0.4306800782783742 -2.560619081352313 0.4207929144223872 C -2.560262593689391 0.413645981035609 -2.560683506833564 0.40595787360632296 -2.557913211139771 0.39921467323538473 C -2.554923868809724 0.39195177398235526 -2.5487948580267124 0.38608046512434724 -2.5433831176016284 0.3805785290255117 C -2.523595904793404 0.3604520086826988 -2.502472937007242 0.34104705372989685 -2.481066497103576 0.32265143131669405 C -2.4732624238080376 0.31593829617033964 -2.465857788496256 0.30873123233439426 -2.4579806996553 0.30211688292595806 C -2.4565246837790276 0.3008927987821891 -2.451271859541029 0.29497424457126376 -2.449875974113924 0.29478096812751076 C -2.449145818659746 0.2946778873575091 -2.449669812573921 0.2962369840037833 -2.449566731803919 0.2969671394579614 Z" fill="#c01c34" transform="matrix(1,0,0,1,0,0)" fill-rule="evenodd"></path></g><g clip-path="url(#SvgjsClipPath8292845d8c439-87b4-465a-ba71-0eff24f337b6)"><path d=" M -2.449566731803919 0.2969671394579614 C -2.4486991353230723 0.29301570994123327 -2.4445887896192584 0.2901638086378555 -2.4415607920004616 0.2877156403503174 C -2.4352170296132796 0.2825916670748212 -2.428864677161931 0.2775106441201588 -2.422374883683913 0.27257565225633196 C -2.39537631200766 0.2520668740580966 -2.3683605602030733 0.231785732560281 -2.3400734789018 0.2130550976445732 C -2.2546796510196385 0.15651100026661036 -2.1626542936007076 0.11052838678172872 -2.0665744258950465 0.07514161744659498 C -2.045103560510129 0.06723446338105532 -2.0232719124302063 0.05990284361469134 -2.00122121771403 0.05377383283167936 C -1.9846853441929397 0.04917814850244129 -1.9676727221105916 0.0456991725148872 -1.9513301250332544 0.04052365885439002 C -1.9498182737398975 0.042044100211913626 -1.9462834623352592 0.04650663854656634 -1.9496121121998942 0.04779085313950304 C -1.9527861409095268 0.04892474160952054 -1.9550324426891452 0.05169933233539714 -1.9582150614629446 0.052932006543332966 C -1.977186218175323 0.060280806438030465 -1.9952425330539372 0.0731014772069799 -2.0121950246871174 0.0846465234471595 C -2.051219686196891 0.11122418197923956 -2.089419701546652 0.13927503651592565 -2.1244628683151134 0.1710024385160024 C -2.171244357767508 0.2133600449224945 -2.2175405085944777 0.2549960859389754 -2.2559423904521583 0.30545841788684347 C -2.310115630120084 0.37665286970128387 -2.3534353237132577 0.45966295477715824 -2.3759412918302742 0.5465170935676755 C -2.3810008396245195 0.5660508994829794 -2.3833716973345567 0.586087224152041 -2.3864598254025213 0.6059775177302669 C -2.396054927076837 0.6678173896670621 -2.399233250818553 0.7307825600097078 -2.397287601284773 0.7933697675290143 C -2.405534062884901 0.7872708219705864 -2.4088970730062034 0.7730757409349489 -2.412285853320006 0.7636180802873018 C -2.4218294146093213 0.7370060614985547 -2.427868229718582 0.7091527784377047 -2.435783973848288 0.6820425359272833 C -2.4514823161131156 0.628273029275197 -2.46011533060075 0.571896438148487 -2.4643201670103987 0.5161383316417865 C -2.4668628260037715 0.48249105030043005 -2.469594466408814 0.4481823340182296 -2.4670947577362754 0.4144319719068714 C -2.465363859806665 0.3910884725335917 -2.463607191684554 0.3676805476790611 -2.459479665852407 0.34459475023078545 C -2.4566363546131957 0.32867306629762105 -2.4507521606589378 0.31313364021987955 -2.449566731803919 0.2969671394579614 Z" fill="#f03350" transform="matrix(1,0,0,1,0,0)" fill-rule="evenodd"></path></g><g clip-path="url(#SvgjsClipPath8292845d8c439-87b4-465a-ba71-0eff24f337b6)"><path d=" M -1.9513301250332544 0.04052365885439002 C -1.943105138593543 0.03911918336311815 -1.9350090031163338 0.03561873221514711 -1.926779721644539 0.03385347402886962 C -1.8894945481285426 0.02584753422541175 -1.8519688528158758 0.017124324064026086 -1.8149929216098841 0.008791961822229855 C -1.8256574862729664 0.019224594752808688 -1.8393199833302623 0.026947062438762104 -1.8511527967200299 0.03606971058390396 C -1.8763302747929211 0.05548755063295596 -1.9017826349191504 0.07465198378908733 -1.9263673985645327 0.09482145445273438 C -1.9803473617887055 0.13910753026467304 -2.0302985849186492 0.1910988936342316 -2.073910340693494 0.24555990045174536 C -2.1250641728067894 0.30944420766023883 -2.171304488216675 0.37903661250757104 -2.2049904248467826 0.453830301207901 C -2.2280246819100573 0.5049841333211962 -2.2457159190615825 0.5576412266636821 -2.2604564691718116 0.6116985004653559 C -2.26655541473024 0.6340670275557039 -2.2726285900961676 0.6565601105764702 -2.276773296056649 0.6794010911959922 C -2.2824384433746534 0.7106259744423111 -2.2860462703247095 0.7421815751590517 -2.2876654974201514 0.7738660268382946 C -2.289473705927263 0.8093086315905125 -2.2923685575514745 0.8446180903481448 -2.2920979705302207 0.8801938410949481 C -2.2915825666802125 0.9471490962430726 -2.282520048984238 1.0133140654878516 -2.271408800984482 1.079174087454709 C -2.267148129157749 1.1044460562334355 -2.263883904774365 1.130289264279254 -2.2581929872638598 1.1552691708763092 C -2.265786603987311 1.1550243540475553 -2.271945679994907 1.1431185251123706 -2.275497671527879 1.1372901665751962 C -2.287197338923061 1.118087078130314 -2.301057407456193 1.100275580080454 -2.3120097392688637 1.0806043331384814 C -2.345042831022294 1.021259874842142 -2.3628371489438207 0.9569933097782257 -2.3807431376995156 0.8919879991959647 C -2.3868592633862775 0.8697783882927028 -2.391042624635509 0.8469073424485971 -2.394242423537642 0.8241007220857424 C -2.3955781785155796 0.8145442757001771 -2.398322704016872 0.8029949344279141 -2.397287601284773 0.7933697675290143 C -2.399233250818553 0.7307825600097078 -2.396054927076837 0.6678173896670621 -2.3864598254025213 0.6059775177302669 C -2.3833716973345567 0.586087224152041 -2.3810008396245195 0.5660508994829794 -2.3759412918302742 0.5465170935676755 C -2.3534353237132577 0.45966295477715824 -2.310115630120084 0.37665286970128387 -2.2559423904521583 0.30545841788684347 C -2.2175405085944777 0.2549960859389754 -2.171244357767508 0.2133600449224945 -2.1244628683151134 0.1710024385160024 C -2.089419701546652 0.13927503651592565 -2.051219686196891 0.11122418197923956 -2.0121950246871174 0.0846465234471595 C -1.9952425330539372 0.0731014772069799 -1.977186218175323 0.060280806438030465 -1.9582150614629446 0.052932006543332966 C -1.9550324426891452 0.05169933233539714 -1.9527861409095268 0.04892474160952054 -1.9496121121998942 0.04779085313950304 C -1.9462834623352592 0.04650663854656634 -1.9498182737398975 0.042044100211913626 -1.9513301250332544 0.04052365885439002 Z" fill="#be1b36" transform="matrix(1,0,0,1,0,0)" fill-rule="evenodd"></path></g><g clip-path="url(#SvgjsClipPath8292845d8c439-87b4-465a-ba71-0eff24f337b6)"><path d=" M -2.2096032893043542 -0.3074727256389385 C -2.2061500835093004 -0.30574612274141166 -2.205157931098035 -0.3016658422621815 -2.2036374897405113 -0.2982083414350445 C -2.2011549611963064 -0.29256466927745667 -2.1983588953100126 -0.2869854226011199 -2.1956100747766367 -0.2814620113418673 C -2.1863242154123257 -0.2628086870036606 -2.1755050295942406 -0.24524200578255406 -2.1610050012806816 -0.23016214813773628 C -2.139607151441182 -0.20791388194572358 -2.1138884993257823 -0.19030854543586645 -2.085159029719919 -0.1790040209923573 C -2.068425584722992 -0.17241973680850492 -2.05010727288729 -0.16984271755846492 -2.0323172499978472 -0.16853273277302783 C -1.9902688859013598 -0.16543171960881292 -1.9442991575127282 -0.17373831165810877 -1.909011173915513 -0.19800953796140286 C -1.8799939371600616 -0.21797284708504672 -1.854000402991324 -0.2491676651067818 -1.8388818900577557 -0.28093372239560915 C -1.833959783290179 -0.29127615965243664 -1.8299052730034493 -0.3021297057271888 -1.8255071601500474 -0.31269977968443646 C -1.8241628151079432 -0.31592964381115335 -1.8233854143008479 -0.32204147446583176 -1.8194554599445367 -0.32274585972750935 C -1.8162556610424037 -0.3147528050203018 -1.8163888070369891 -0.3034611656730428 -1.8156071111978105 -0.29487969157040933 C -1.8133865796106923 -0.270402303727112 -1.81494997128905 -0.2461224873596511 -1.8209415410453933 -0.22225928910428 C -1.8339340130976787 -0.170499857467225 -1.8626978429602095 -0.12525598950068806 -1.9088651428246772 -0.09703762871274924 C -1.9244432241911693 -0.0875155425838513 -1.94205285573311 -0.08093125839999882 -1.9597183226921349 -0.07654173561076394 C -2.0027760193282207 -0.06585140075518103 -2.0489690893851895 -0.06507829498016882 -2.090841357166257 -0.08172583933542787 C -2.1434555001879088 -0.10264694061366997 -2.188360060619857 -0.1508114303969189 -2.2045866918309427 -0.20512640612359695 C -2.212425125383148 -0.23137334718525504 -2.2136449144948336 -0.25833326357275765 -2.2114630381964666 -0.2854735713077631 C -2.2108703237689573 -0.29286102649121126 -2.210943339314375 -0.30018405619340854 -2.2096032893043542 -0.3074727256389385 Z" fill="#e97e14" transform="matrix(1,0,0,1,0,0)" fill-rule="evenodd"></path></g><g clip-path="url(#SvgjsClipPath8292845d8c439-87b4-465a-ba71-0eff24f337b6)"><path d=" M -1.8194554599445367 -0.32274585972750935 C -1.8233854143008479 -0.32204147446583176 -1.8241628151079432 -0.31592964381115335 -1.8255071601500474 -0.31269977968443646 C -1.8299052730034493 -0.3021297057271888 -1.833959783290179 -0.29127615965243664 -1.8388818900577557 -0.28093372239560915 C -1.854000402991324 -0.2491676651067818 -1.8799939371600616 -0.21797284708504672 -1.909011173915513 -0.19800953796140286 C -1.9442991575127282 -0.17373831165810877 -1.9902688859013598 -0.16543171960881292 -2.0323172499978472 -0.16853273277302783 C -2.05010727288729 -0.16984271755846492 -2.068425584722992 -0.17241973680850492 -2.085159029719919 -0.1790040209923573 C -2.1138884993257823 -0.19030854543586645 -2.139607151441182 -0.20791388194572358 -2.1610050012806816 -0.23016214813773628 C -2.1755050295942406 -0.24524200578255406 -2.1863242154123257 -0.2628086870036606 -2.1956100747766367 -0.2814620113418673 C -2.1983588953100126 -0.2869854226011199 -2.2011549611963064 -0.29256466927745667 -2.2036374897405113 -0.2982083414350445 C -2.205157931098035 -0.3016658422621815 -2.2061500835093004 -0.30574612274141166 -2.2096032893043542 -0.3074727256389385 C -2.2060384126751322 -0.3206799492953939 -2.2043418750021893 -0.3340804493956024 -2.198985969994189 -0.34706862641580427 C -2.181058506078077 -0.39055153122814723 -2.1471019824267157 -0.4274845121133049 -2.105672102950238 -0.44947078134823015 C -2.0551539355852855 -0.4762803716128138 -1.9902431157088594 -0.4798495432741192 -1.9370276681955318 -0.45864067484628945 C -1.879345387315468 -0.43564507307176514 -1.833444379440171 -0.38298797972927956 -1.8194554599445367 -0.32274585972750935 Z" fill="#fcb12f" transform="matrix(1,0,0,1,0,0)" fill-rule="evenodd"></path></g><g clip-path="url(#SvgjsClipPath8292845d8c439-87b4-465a-ba71-0eff24f337b6)"><path d=" M -1.900811957668302 0.2191884034596685 C -1.919950620631933 0.2469343107184332 -1.9403606130922504 0.2744010408917771 -1.9556337471808212 0.30457364127766307 C -1.9841871204712653 0.36098888769312376 -2.0024624819861327 0.42161756058239996 -2.017052705973443 0.48289478331626956 C -2.055115280296535 0.6427301072679219 -2.0461171880818116 0.8114990979530463 -2.0072729179195408 0.9702649589159322 C -1.9921672900822227 1.0319931600185586 -1.9698417133127089 1.0940306034311902 -1.9391365289484814 1.1497973000020574 C -1.9318306793746176 1.1630732441718472 -1.9253752461532674 1.1768517070953948 -1.917330651061059 1.1897110331530947 C -1.9153162810139441 1.192932307215645 -1.9121594324326452 1.2010756880457718 -1.9086074408996732 1.2022224616120394 C -1.9100076213588617 1.209313559581733 -1.9081650525950828 1.217641626791446 -1.907993251311747 1.2248701657878083 C -1.9075422729429898 1.2441033194572741 -1.9060862570667174 1.263211917196321 -1.905171415232953 1.2824064155770363 C -1.9027189519133316 1.333882375096587 -1.8969550188574087 1.384580933809042 -1.89081741801023 1.435730470890254 C -1.8877550601347655 1.4612386664335675 -1.885710624863067 1.4869100731960498 -1.881918111533425 1.5123323680976954 C -1.8779623869846134 1.538862781276858 -1.8730145100245363 1.5653330640068528 -1.8694109781065635 1.5919021324747662 C -1.8680537479682093 1.6019224423253384 -1.864991390092745 1.6154131380992987 -1.8736029294199623 1.6229852796623325 C -1.8826224967951024 1.6309139088882894 -1.8953057265373832 1.6212372016043892 -1.9031398650575049 1.615889886660556 C -1.9276000727724685 1.5991779168240459 -1.9540016349891292 1.585425224092999 -1.9780108643353358 1.5680775895081454 C -1.9921329298255555 1.55787688831007 -2.0063280108611927 1.5479553641974164 -2.0201236539130742 1.5373122746947507 C -2.0273521929094365 1.5317330280184136 -2.0354698035470626 1.5262611571441618 -2.040967444613815 1.5188393417040464 C -2.0470277348834927 1.5106487155210024 -2.0503778599085445 1.4995417625533298 -2.053620609131512 1.4899767261035979 C -2.058959334011178 1.4742268434537695 -2.064225043345427 1.458678827311861 -2.0705602156684417 1.443285432324955 C -2.097502951927611 1.3778248483418534 -2.12274056044967 1.3108824782899795 -2.1410545772532883 1.2424583221693317 C -2.162465312189038 1.1624461694876709 -2.1805731674526525 1.081115441956406 -2.1887294333790295 0.998539155120955 C -2.203225166660505 0.8518208591520069 -2.1878919021227663 0.6998411488808931 -2.136665054464053 0.5611073175549857 C -2.124209461422193 0.5273741355719612 -2.1096493026594665 0.49334889140726546 -2.0923961587804483 0.46178040559427447 C -2.0828869577478004 0.4443855256565039 -2.071775709748044 0.42789689748833104 -2.0614461575874667 0.4109916512080678 C -2.0504379903577123 0.39297399161820445 -2.0397949008550467 0.3744323381141661 -2.0272233419469345 0.3574326011280683 C -2.0071913123099563 0.3303352437138969 -1.9850933722408626 0.3046080015343301 -1.9625057985142615 0.27962809493727503 C -1.945553306881081 0.2608802798932335 -1.9287382562745696 0.24127345843251202 -1.90990454058886 0.2243810972484993 C -1.907434897140905 0.22216486069346464 -1.903539303041261 0.22111257783303173 -1.900811957668302 0.2191884034596685 Z" fill="#e57a14" transform="matrix(1,0,0,1,0,0)" fill-rule="evenodd"></path></g><g clip-path="url(#SvgjsClipPath8292845d8c439-87b4-465a-ba71-0eff24f337b6)"><path d=" M -1.900811957668302 0.2191884034596685 C -1.901619423699981 0.220180555870934 -1.90241400463541 0.2211898884105329 -1.9032429458275066 0.22216915572554807 C -1.903818480126682 0.22285206582680872 -1.9021777778708233 0.22073891004177582 -1.901649488924565 0.22002163968384814 C -1.900532780582881 0.21849260826215755 -1.8992872212786949 0.21706236257838551 -1.8980889073274263 0.215597756637946 C -1.8948332730082091 0.2116334420249676 -1.8916377691381592 0.2076004068986549 -1.8878882061293512 0.2040827756223501 C -1.8757246752691619 0.1926708753767561 -1.8634065232539703 0.18153385718449955 -1.851552234703786 0.16975258417973305 C -1.816612148705326 0.135027249785443 -1.776844446645124 0.10625482985874557 -1.7358140051524027 0.0792734383108259 C -1.653130342514867 0.024898332134980272 -1.5567755927558684 -0.00455699789297781 -1.4591666936285173 -0.0160204385235726 C -1.4114274120215247 -0.021625455392409898 -1.3618326765545032 -0.024026378327030584 -1.313865758247091 -0.01889381498736742 C -1.3084926731107571 -0.017059836287755648 -1.3001130655160438 -0.018073463859437977 -1.2941515609842842 -0.01730894814859274 C -1.2729040372677038 -0.014594487871883888 -1.2512270103427836 -0.012391136413099524 -1.2302414835832902 -0.008104694393866296 C -1.2232878266402656 -0.006683038774260686 -1.2149769395588863 -0.006773234448012255 -1.208620292075454 -0.0034188143908766566 C -1.2070483103329297 0.012245167617283448 -1.2080275776479448 0.027818953951692427 -1.2087792082625397 0.04347864092776932 C -1.2094707084279672 0.05792283382424401 -1.2099689321496419 0.07230260123946752 -1.212193758768843 0.08662653323760705 C -1.2185589963164423 0.12757536912074374 -1.2350948698375324 0.16807752166720702 -1.2566859961207848 0.2033354400398386 C -1.2790845884357167 0.2399205233262408 -1.3095836112599408 0.2728677144380032 -1.3410833765595975 0.3017346250705355 C -1.388934329000758 0.34559119767413415 -1.4457189481753911 0.3777781681071346 -1.4975084450370297 0.41641198169731886 C -1.5766873614945114 0.47547296787615423 -1.6501538852810704 0.5397309428759034 -1.7129515493724639 0.6162984798266775 C -1.7398384502145485 0.6490781646871873 -1.7623615984598988 0.6850104030969126 -1.783682137721897 0.7215525360624808 C -1.8126907844131817 0.771263237395754 -1.8379455730635743 0.8232846659898965 -1.8567749937172005 0.8777714429999104 C -1.8733881778157921 0.9258371470452413 -1.884593916521383 0.9764498051160284 -1.8936864994419411 1.026435388502639 C -1.9002707836257935 1.0626339189015352 -1.904793452409614 1.1003357105296216 -1.9061979279008856 1.1370968901314433 C -1.9067433969754775 1.151485247610834 -1.9078901705417453 1.165809179608973 -1.9081092171779988 1.1802147172166972 C -1.9082122979480003 1.1868849020422176 -1.9066875615583934 1.195882994256941 -1.9086074408996732 1.2022224616120394 C -1.9121594324326452 1.2010756880457718 -1.9153162810139441 1.192932307215645 -1.917330651061059 1.1897110331530947 C -1.9253752461532674 1.1768517070953948 -1.9318306793746176 1.1630732441718472 -1.9391365289484814 1.1497973000020574 C -1.9698417133127089 1.0940306034311902 -1.9921672900822227 1.0319931600185586 -2.0072729179195408 0.9702649589159322 C -2.0461171880818116 0.8114990979530463 -2.055115280296535 0.6427301072679219 -2.017052705973443 0.48289478331626956 C -2.0024624819861327 0.42161756058239996 -1.9841871204712653 0.36098888769312376 -1.9556337471808212 0.30457364127766307 C -1.9403606130922504 0.2744010408917771 -1.919950620631933 0.2469343107184332 -1.900811957668302 0.2191884034596685 Z" fill="#263a44" transform="matrix(1,0,0,1,0,0)" fill-rule="evenodd"></path></g><g clip-path="url(#SvgjsClipPath8292845d8c439-87b4-465a-ba71-0eff24f337b6)"><path d=" M -1.709154741010738 -0.471817833278161 C -1.7076729549419651 -0.46921933886770395 -1.7028367488160567 -0.4684762983172758 -1.7019562672389594 -0.4644905085438804 C -1.7009125744426934 -0.4597530881558901 -1.7044903361681656 -0.45685823653167834 -1.7046363672590013 -0.4526405150257794 C -1.7047179728685857 -0.45018375667407456 -1.7034165781473156 -0.44686799190568965 -1.7027766183668889 -0.4444928391635694 C -1.6969654399580485 -0.42294895823323436 -1.688607307523752 -0.40274942234500355 -1.6752626428406276 -0.38474464785139023 C -1.6505662083610768 -0.3514280839804554 -1.6174772811905624 -0.3225225180591726 -1.579668113760391 -0.3051061629609851 C -1.50950876467805 -0.2727860465333991 -1.424784961800899 -0.28143624114936694 -1.3627217481957674 -0.3275820658534179 C -1.331793222163203 -0.35057766762794224 -1.3068777410473988 -0.3799385069500655 -1.2893110598262922 -0.4142558132964325 C -1.2841140710053782 -0.4244092691415904 -1.2787581659973781 -0.43475170639841787 -1.2741495965718899 -0.4451843393289968 C -1.2726635154710335 -0.44855164448238255 -1.2711817294022603 -0.4550800932491508 -1.2668308619017759 -0.45584460895999596 C -1.2632874604329711 -0.44588013452650765 -1.262235177572538 -0.43487196729675315 -1.26107551891002 -0.424426449269924 C -1.2583911238578949 -0.4002454186403813 -1.2593703911729097 -0.37765784491378 -1.2643955787104881 -0.3537946466584089 C -1.2769671376186005 -0.29412806095581434 -1.30953207087494 -0.24006649212205688 -1.3606000023465674 -0.20539269811276772 C -1.4324945443906023 -0.1565839535170086 -1.5351114509271981 -0.15479722017031428 -1.60980635388961 -0.19888142947433313 C -1.6268791064211254 -0.20895757474198984 -1.6421135852209456 -0.22228076426469706 -1.6558190325990751 -0.2365273856853352 C -1.7018832516935416 -0.28439981328691305 -1.7278209504451951 -0.35193489776629666 -1.7195057683317323 -0.41867969634233465 C -1.717869361107957 -0.4318096094212888 -1.7166280968358543 -0.4447634261848237 -1.7135528538641398 -0.457669997595441 C -1.7126508971266259 -0.46144962582883314 -1.7118992665120307 -0.46913773325811936 -1.709154741010738 -0.471817833278161 Z" fill="#23353b" transform="matrix(1,0,0,1,0,0)" fill-rule="evenodd"></path></g><g clip-path="url(#SvgjsClipPath8292845d8c439-87b4-465a-ba71-0eff24f337b6)"><path d=" M -1.2668308619017759 -0.45584460895999596 C -1.2711817294022603 -0.4550800932491508 -1.2726635154710335 -0.44855164448238255 -1.2741495965718899 -0.4451843393289968 C -1.2787581659973781 -0.43475170639841787 -1.2841140710053782 -0.4244092691415904 -1.2893110598262922 -0.4142558132964325 C -1.3068777410473988 -0.3799385069500655 -1.331793222163203 -0.35057766762794224 -1.3627217481957674 -0.3275820658534179 C -1.424784961800899 -0.28143624114936694 -1.50950876467805 -0.2727860465333991 -1.579668113760391 -0.3051061629609851 C -1.6174772811905624 -0.3225225180591726 -1.6505662083610768 -0.3514280839804554 -1.6752626428406276 -0.38474464785139023 C -1.688607307523752 -0.40274942234500355 -1.6969654399580485 -0.42294895823323436 -1.7027766183668889 -0.4444928391635694 C -1.7034165781473156 -0.44686799190568965 -1.7047179728685857 -0.45018375667407456 -1.7046363672590013 -0.4526405150257794 C -1.7044903361681656 -0.45685823653167834 -1.7009125744426934 -0.4597530881558901 -1.7019562672389594 -0.4644905085438804 C -1.7028367488160567 -0.4684762983172758 -1.7076729549419651 -0.46921933886770395 -1.709154741010738 -0.471817833278161 C -1.7078404611932179 -0.48534718434087143 -1.69791464204848 -0.5006289084936091 -1.6914763889554632 -0.512328575888791 C -1.6676733211492598 -0.5555795489686303 -1.630246411574511 -0.5898453149299965 -1.5852989008217286 -0.6099117048236419 C -1.5509128739620273 -0.6252621494897139 -1.5150450610335529 -0.6300768804552055 -1.4776310365550542 -0.6287153552847676 C -1.4520326453379895 -0.6277833333226699 -1.4257556390517476 -0.6237073478755231 -1.401888145764293 -0.6140521157520397 C -1.3585813372673696 -0.5965326798838505 -1.3218974682430489 -0.5655869737229526 -1.2961959962559826 -0.5267255234323482 C -1.2814339709853364 -0.5044042416949177 -1.2733593106685441 -0.4815589660433125 -1.2668308619017759 -0.45584460895999596 Z" fill="#314958" transform="matrix(1,0,0,1,0,0)" fill-rule="evenodd"></path></g><g clip-path="url(#SvgjsClipPath8292845d8c439-87b4-465a-ba71-0eff24f337b6)"><path d=" M -1.1051701493146786 0.08628293067093484 C -1.1027778164442246 0.08933240345014903 -1.1018500895142105 0.09434470589147692 -1.10076344639711 0.09805131857945126 C -1.0984183588795737 0.106022898126242 -1.09625366270954 0.11406319818636701 -1.0937238888124172 0.12197894231607342 C -1.0822046127647382 0.15797131117496643 -1.075087744602544 0.19582342892597182 -1.071093364764982 0.2333577143028055 C -1.0668928233874169 0.27283764921341935 -1.066652301590746 0.3134901278828016 -1.070985988962897 0.35297865285758245 C -1.0762302231367284 0.40076088478540894 -1.089308595830682 0.448345545237399 -1.1044142236680003 0.4938514101610232 C -1.116135366223599 0.5291780490469893 -1.1286167294579599 0.5651102874567147 -1.1451397178828 0.5985599973222349 C -1.17021411518569 0.6493358666121913 -1.1955505094456673 0.6999614097792286 -1.2202297637968846 0.750900490288354 C -1.2276429891728333 0.7661993945694254 -1.2367441621575581 0.7805834570167323 -1.2440886670201723 0.7959253116186378 C -1.2468374875535484 0.8016634744820603 -1.250342233733603 0.8068475782067241 -1.2518068396740425 0.812942228733069 C -1.2625272397542089 0.8259561759457712 -1.2686476604730543 0.8439394752789675 -1.2759921653356685 0.8590579882125362 C -1.293657632294693 0.895424024862685 -1.309124042827017 0.9325331020632619 -1.3220134341093008 0.970853378311358 C -1.3314152593398636 0.9988097421422093 -1.3426725384304554 1.026091785935967 -1.3501373041914049 1.0546752244509947 C -1.3708007035446428 1.133806895555559 -1.3828182033139964 1.2161083003376718 -1.3845791664681906 1.2978771211414435 C -1.3854038126282031 1.3362918880953747 -1.3849399491631962 1.3746894749209713 -1.3817444452931464 1.4129839809765674 C -1.379691419957281 1.4375644495898656 -1.3740090925109427 1.4628235332723423 -1.3753147822642964 1.4873911167893905 C -1.375168751173461 1.4863646041214584 -1.3750227200826253 1.4853423864856092 -1.374872393959706 1.4843158738176763 C -1.374807968478455 1.483882075577253 -1.3749797697617914 1.4851877653306065 -1.3750570803392923 1.4856172685389468 C -1.3752159965263784 1.486510635212294 -1.375417863034298 1.4873954118214743 -1.375598254381801 1.4882844834627382 C -1.3762167390018105 1.4913425463061187 -1.377071450386407 1.4943361836682485 -1.377810195904752 1.4973641812870462 C -1.3800822678768705 1.5066758108438572 -1.3817916906460639 1.5161678317481717 -1.3835268836077574 1.5255911321391513 C -1.388814068102423 1.5542561762637643 -1.3935128332016629 1.5830371862546284 -1.3987742475038278 1.611715115475491 C -1.4046928017147533 1.6439493312614089 -1.4106843714710966 1.6763553483306628 -1.4144768848007387 1.7089202815870028 C -1.4155807080461726 1.7183779422346495 -1.4169765934732776 1.7278270128181303 -1.4179215005316257 1.7372975585620274 C -1.4184583795420507 1.7427007089229447 -1.4186172957291363 1.7489886358930422 -1.4218085045671025 1.753631565575198 C -1.428336953333871 1.763136471575763 -1.4415312918940761 1.766782953814569 -1.4520755956588236 1.7695489544762786 C -1.4777083471325556 1.7762792697509668 -1.5049388505413122 1.7770523755259784 -1.5306317324642118 1.769871081882534 C -1.5416527847902164 1.7667872488466523 -1.5535457286291514 1.762672608110755 -1.5596403791554962 1.752235680148093 C -1.5642231783884841 1.744380066467554 -1.565112250029748 1.7332129830507135 -1.5668130827347744 1.7243609219268266 C -1.5703092388506623 1.7061328057648757 -1.5729635686782035 1.6876727578704223 -1.5768290975532637 1.6695262473180568 C -1.5915009271501583 1.600616752571985 -1.6039994705128526 1.5310630030134031 -1.6157850385497028 1.4616123342248237 C -1.6278497836719739 1.3905037830520508 -1.637492130699207 1.3177029892384184 -1.6408809110130096 1.2456323508789644 C -1.6419847342584437 1.2221127551902655 -1.6414908055688526 1.1984900787315647 -1.6416196565313546 1.174953302914532 C -1.6417570975580236 1.149492352724136 -1.6426891195201212 1.123825240993737 -1.6413705446705174 1.098385765963758 C -1.6371742983250355 1.0174587714483327 -1.6237909783531606 0.9348481243562146 -1.6002284323436273 0.8573056151225087 C -1.5740158515386364 0.771027010631167 -1.5326804627679937 0.6897435284528195 -1.4813462393071952 0.6157701908804192 C -1.452792866016751 0.5746280785535294 -1.4202150476641613 0.534843196364994 -1.384218383773185 0.4999374706232014 C -1.3321239396336249 0.44941930325824897 -1.2738875996148022 0.4029900064366936 -1.2278921010336703 0.34654469479664907 C -1.2101622085933945 0.324786062262144 -1.1916849805706076 0.3028556284443029 -1.1766008278937061 0.27914705134393425 C -1.1555551706850453 0.24607530430175317 -1.1395261109497963 0.20988536396702384 -1.1263017071650072 0.17311988933311873 C -1.119077463200728 0.15304061434322314 -1.1138933594760643 0.13156974895830587 -1.1105647096114293 0.11050261658922833 C -1.1096799330022489 0.1049190748808081 -1.1086491253022326 0.09937848349322198 -1.107738578500552 0.09380782688105205 C -1.1072618299392947 0.09090009016059009 -1.1077514635968022 0.08809113917804645 -1.1051701493146786 0.08628293067093484 Z" fill="#203034" transform="matrix(1,0,0,1,0,0)" fill-rule="evenodd"></path></g><g clip-path="url(#SvgjsClipPath8292845d8c439-87b4-465a-ba71-0eff24f337b6)"><path d=" M -1.2518068396740425 0.812942228733069 C -1.2461932327410383 0.8107345822422012 -1.2423534740584785 0.8056621493517058 -1.2384020445417505 0.8012597414662204 C -1.2308599682033001 0.7928543636790064 -1.223648609335271 0.7841612187422045 -1.2160893528684869 0.7757687260512409 C -1.1902160795980845 0.7470263713491272 -1.162289780991817 0.7199848493520402 -1.13526114409098 0.6923291377670264 C -1.0760798970138097 0.6317691853910847 -1.0126680433344901 0.5745894232647788 -0.959005912484489 0.5089140876775076 C -0.9487407858051626 0.49634682380147876 -0.9403525881462822 0.48198423651458877 -0.9314532816694772 0.468442000355628 C -0.9196591235684601 0.45049735631118226 -0.9075428380611887 0.4328275943200741 -0.8975225282106161 0.4137490618056108 C -0.8785599615624047 0.3776536121767162 -0.8659884026542923 0.337988990886516 -0.8574198136479092 0.298251354050898 C -0.8476615007544239 0.25297742085977726 -0.8466650533110749 0.20637632275488593 -0.851161951902395 0.16048819997583896 C -0.8527124584845025 0.14467389184475954 -0.8564061860762269 0.12938357762785513 -0.8593311029250219 0.1138012012292795 C -0.8605380069404576 0.10735865310417936 -0.8636819704255063 0.0983047254723719 -0.8618651718542285 0.09195237302102299 C -0.8582702300004219 0.09246348183894759 -0.8548342043337023 0.09476561903565017 -0.8515098495011506 0.09622592994400625 C -0.8446721584243775 0.09923245240238632 -0.8378215822513544 0.10211012389826435 -0.8311084471049999 0.10539152840998223 C -0.8166642542085252 0.11245256115509206 -0.8019580643549631 0.11889940431227541 -0.7876942628059913 0.12634269491280792 C -0.7819131496217346 0.12936210246743818 -0.775230079699964 0.131805975722893 -0.770320858028638 0.13619120348004443 C -0.7667259161748321 0.14634895435728568 -0.7656177978973149 0.15770931421787904 -0.7632297600589444 0.16821925772595914 C -0.757568907773023 0.19311755871342973 -0.7523203785671078 0.21781828822506366 -0.7491635299858088 0.24318045267754163 C -0.7453624265919996 0.2737524910471837 -0.7455557030357525 0.30517924080142245 -0.7490475641195571 0.3357770493635649 C -0.756658360971342 0.4025089628433527 -0.7765873098383187 0.4677376150939505 -0.8087141498221517 0.5268544366898698 C -0.8383198059730288 0.581332623635717 -0.8784955360811533 0.6296603246381354 -0.9194873222851245 0.6757846741817692 C -0.972951881659289 0.7359451885739547 -1.0282117644443152 0.7942760192986118 -1.0812940659630574 0.8547801362574694 C -1.1121581665143707 0.8899564490205165 -1.141454580355243 0.9274993244615171 -1.1687752794377513 0.965475998142941 C -1.229549983417863 1.049963574255505 -1.2773751656665233 1.1432817363315395 -1.3111169377137146 1.2416680362659862 C -1.3248481552843447 1.2817020303153588 -1.3375657452832928 1.3230417141180848 -1.3477965117059518 1.364119400963724 C -1.3579757377436101 1.4049780411731094 -1.3657626309108144 1.4464809361950046 -1.3753147822642964 1.4873911167893905 C -1.3740090925109427 1.4628235332723423 -1.379691419957281 1.4375644495898656 -1.3817444452931464 1.4129839809765674 C -1.3849399491631962 1.3746894749209713 -1.3854038126282031 1.3362918880953747 -1.3845791664681906 1.2978771211414435 C -1.3828182033139964 1.2161083003376718 -1.3708007035446428 1.133806895555559 -1.3501373041914049 1.0546752244509947 C -1.3426725384304554 1.026091785935967 -1.3314152593398636 0.9988097421422093 -1.3220134341093008 0.970853378311358 C -1.309124042827017 0.9325331020632619 -1.293657632294693 0.895424024862685 -1.2759921653356685 0.8590579882125362 C -1.2686476604730543 0.8439394752789675 -1.2625272397542089 0.8259561759457712 -1.2518068396740425 0.812942228733069 Z" fill="#075c99" transform="matrix(1,0,0,1,0,0)" fill-rule="evenodd"></path></g><g clip-path="url(#SvgjsClipPath8292845d8c439-87b4-465a-ba71-0eff24f337b6)"><path d=" M -1.1051701493146786 0.08628293067093484 C -1.1069654727255398 0.08052758767917867 -1.1040448509088279 0.07250876277947071 -1.1035552172513203 0.06659020856854536 C -1.102288182786717 0.05133854964039153 -1.101321800567952 0.03583348381931717 -1.1011027539316987 0.020538874570329213 C -1.043626634591638 0.03238886808843011 -0.986893555802006 0.047232498968660996 -0.9311698095519725 0.06588582330686765 C -0.9141743675979583 0.07157674081737275 -0.8971875157081111 0.07757690063788292 -0.8803681700695161 0.08378751703047949 C -0.8740759480673346 0.0861111293875989 -0.868204639209327 0.0898821675568241 -0.8618651718542285 0.09195237302102299 C -0.8636819704255063 0.0983047254723719 -0.8605380069404576 0.10735865310417936 -0.8593311029250219 0.1138012012292795 C -0.8564061860762269 0.12938357762785513 -0.8527124584845025 0.14467389184475954 -0.851161951902395 0.16048819997583896 C -0.8466650533110749 0.20637632275488593 -0.8476615007544239 0.25297742085977726 -0.8574198136479092 0.298251354050898 C -0.8659884026542923 0.337988990886516 -0.8785599615624047 0.3776536121767162 -0.8975225282106161 0.4137490618056108 C -0.9075428380611887 0.4328275943200741 -0.9196591235684601 0.45049735631118226 -0.9314532816694772 0.468442000355628 C -0.9403525881462822 0.48198423651458877 -0.9487407858051626 0.49634682380147876 -0.959005912484489 0.5089140876775076 C -1.0126680433344901 0.5745894232647788 -1.0760798970138097 0.6317691853910847 -1.13526114409098 0.6923291377670264 C -1.162289780991817 0.7199848493520402 -1.1902160795980845 0.7470263713491272 -1.2160893528684869 0.7757687260512409 C -1.223648609335271 0.7841612187422045 -1.2308599682033001 0.7928543636790064 -1.2384020445417505 0.8012597414662204 C -1.2423534740584785 0.8056621493517058 -1.2461932327410383 0.8107345822422012 -1.2518068396740425 0.812942228733069 C -1.250342233733603 0.8068475782067241 -1.2468374875535484 0.8016634744820603 -1.2440886670201723 0.7959253116186378 C -1.2367441621575581 0.7805834570167323 -1.2276429891728333 0.7661993945694254 -1.2202297637968846 0.750900490288354 C -1.1955505094456673 0.6999614097792286 -1.17021411518569 0.6493358666121913 -1.1451397178828 0.5985599973222349 C -1.1286167294579599 0.5651102874567147 -1.116135366223599 0.5291780490469893 -1.1044142236680003 0.4938514101610232 C -1.089308595830682 0.448345545237399 -1.0762302231367284 0.40076088478540894 -1.070985988962897 0.35297865285758245 C -1.066652301590746 0.3134901278828016 -1.0668928233874169 0.27283764921341935 -1.071093364764982 0.2333577143028055 C -1.075087744602544 0.19582342892597182 -1.0822046127647382 0.15797131117496643 -1.0937238888124172 0.12197894231607342 C -1.09625366270954 0.11406319818636701 -1.0984183588795737 0.106022898126242 -1.10076344639711 0.09805131857945126 C -1.1018500895142105 0.09434470589147692 -1.1027778164442246 0.08933240345014903 -1.1051701493146786 0.08628293067093484 Z" fill="#219bd3" transform="matrix(1,0,0,1,0,0)" fill-rule="evenodd"></path></g><g clip-path="url(#SvgjsClipPath8292845d8c439-87b4-465a-ba71-0eff24f337b6)"><path d=" M -1.1596655163888594 -0.3302321006488758 C -1.1524885177774977 -0.3251983230471308 -1.1501133650353774 -0.31020007101189767 -1.1474933954645035 -0.30224137656135713 C -1.1410980926923207 -0.2828063563839716 -1.133470115712202 -0.26362903813159005 -1.1204776436599169 -0.24758709330009054 C -1.1034521364813186 -0.22656291125184697 -1.0835060074860083 -0.20668979780195457 -1.0599864117973092 -0.19298864545590816 C -1.0136730808420058 -0.16599866384382178 -0.954564849310253 -0.1610078365629108 -0.9037202595069624 -0.17670188379565488 C -0.8863769199541929 -0.18205778880365475 -0.870644217432698 -0.1903343156283669 -0.8551563317399573 -0.19965883028142856 C -0.825451889851162 -0.21755193394087352 -0.8016316419166252 -0.24712322983508334 -0.7875267565547388 -0.2785413895251553 C -0.7832274294392552 -0.28811501603905415 -0.7798944845425366 -0.29794634447795704 -0.7766173750629026 -0.30789793381519515 C -0.7755436170420527 -0.3111535681344125 -0.7754620114324677 -0.3168960260299184 -0.7714891067553229 -0.3171107776340884 C -0.7693716559382064 -0.3113769098027493 -0.769109658981119 -0.3047883305868134 -0.76811321153777 -0.2987838757342201 C -0.7648747573468864 -0.2792973151718337 -0.7652054748173083 -0.2588830276794329 -0.7677696089710981 -0.2393277466037121 C -0.7737525886632746 -0.1937531611667534 -0.7946264445885991 -0.15385660814404956 -0.8274233095774426 -0.12181137376980122 C -0.8404200766618111 -0.10911096389918706 -0.8554355088253782 -0.09603688623731699 -0.8722634445281399 -0.08865372608595223 C -0.8985017955256314 -0.07713874507035656 -0.9257666591910554 -0.06982001040024277 -0.9545433741498361 -0.06866035173772456 C -1.0167826840703873 -0.06614775796893557 -1.0810793143588875 -0.09296593829768585 -1.1212077991140945 -0.14075246525759588 C -1.1549495711612863 -0.18094108046197083 -1.1728426748207312 -0.23159668885359191 -1.168238400427326 -0.28432250270941184 C -1.1672161827914769 -0.2960178750725104 -1.165897607941873 -0.30757151137685673 -1.1638402875739244 -0.31913803277745323 C -1.163226097985998 -0.3225740584441734 -1.1633334737880834 -0.3294375197134468 -1.1596655163888594 -0.3302321006488758 Z" fill="#07639f" transform="matrix(1,0,0,1,0,0)" fill-rule="evenodd"></path></g><g clip-path="url(#SvgjsClipPath8292845d8c439-87b4-465a-ba71-0eff24f337b6)"><path d=" M -0.7714891067553229 -0.3171107776340884 C -0.7754620114324677 -0.3168960260299184 -0.7755436170420527 -0.3111535681344125 -0.7766173750629026 -0.30789793381519515 C -0.7798944845425366 -0.29794634447795704 -0.7832274294392552 -0.28811501603905415 -0.7875267565547388 -0.2785413895251553 C -0.8016316419166252 -0.24712322983508334 -0.825451889851162 -0.21755193394087352 -0.8551563317399573 -0.19965883028142856 C -0.870644217432698 -0.1903343156283669 -0.8863769199541929 -0.18205778880365475 -0.9037202595069624 -0.17670188379565488 C -0.954564849310253 -0.1610078365629108 -1.0136730808420058 -0.16599866384382178 -1.0599864117973092 -0.19298864545590816 C -1.0835060074860083 -0.20668979780195457 -1.1034521364813186 -0.22656291125184697 -1.1204776436599169 -0.24758709330009054 C -1.133470115712202 -0.26362903813159005 -1.1410980926923207 -0.2828063563839716 -1.1474933954645035 -0.30224137656135713 C -1.1501133650353774 -0.31020007101189767 -1.1524885177774977 -0.3251983230471308 -1.1596655163888594 -0.3302321006488758 C -1.1615209702488882 -0.3351799776089528 -1.1583813017959228 -0.3414550194828003 -1.1565516181283944 -0.34621821006329107 C -1.1515736759437336 -0.35916343676265905 -1.145869873336978 -0.3717521757991048 -1.1380872752018572 -0.3832585667505338 C -1.1183000623936328 -0.4125163253026555 -1.0899829158677756 -0.43839818863722463 -1.0577830603385248 -0.45332342512704005 C -1.0372742821402894 -0.462832626159688 -1.0152407675524469 -0.46790935408226686 -0.9929066007187661 -0.47076555041772794 C -0.9203678038622214 -0.4800385246857889 -0.8435855153072773 -0.44680356642443864 -0.8019322941624629 -0.3862264339201632 C -0.7926421397660686 -0.37271426298578647 -0.7847736409892792 -0.35807679364555883 -0.7791385588958581 -0.34266192349823577 C -0.7771370739449939 -0.33718146255981724 -0.7749594926787098 -0.33164087117223107 -0.7734089860966027 -0.32601437914297693 C -0.7726315852895074 -0.3231839530000162 -0.7727561412199258 -0.3197135670766289 -0.7714891067553229 -0.3171107776340884 Z" fill="#26a2d8" transform="matrix(1,0,0,1,0,0)" fill-rule="evenodd"></path></g><g clip-path="url(#SvgjsClipPath8292845d8c439-87b4-465a-ba71-0eff24f337b6)"><path d=" M -0.6486511891700788 0.37160620700328884 C -0.6389701868540951 0.4050129665479749 -0.6295468864631151 0.43831235029057636 -0.622296872306336 0.4723762497440225 C -0.6100259656440614 0.5300714157203363 -0.6028317869043665 0.5894459392412599 -0.5979010900726232 0.6481805029817567 C -0.5954099714642513 0.6778462895818014 -0.594087101582564 0.707941579390186 -0.5934428467700539 0.7376846765677318 C -0.5930348187221308 0.7567073736651109 -0.5939324804275614 0.7758159714041581 -0.5928759025350447 0.794761357924036 C -0.598175972125961 0.8318317798358628 -0.6009634479480874 0.8688936116835222 -0.6088834871098774 0.9056032509003433 C -0.6138871994870383 0.9287921291186205 -0.6222152666967513 0.9512164916260526 -0.6300107499281224 0.9735635435559833 C -0.6435615761512499 1.0124206988145046 -0.6593157538331615 1.0517417175380324 -0.6814652342872562 1.086578722766491 C -0.6957548060287284 1.109046035594757 -0.7114316731331387 1.1301861835092526 -0.731798715272622 1.1475424081582726 C -0.7382111981731383 1.153005688968357 -0.747595843275368 1.162042436471831 -0.7559625657738314 1.1638377598826923 C -0.7570191436663478 1.1595427277992922 -0.7564049540784217 1.154762357090468 -0.7565896404580075 1.1503427690766495 C -0.757083569147599 1.138724707291052 -0.7571222244363494 1.126625601912114 -0.7589304329434607 1.1151363910890182 C -0.7640844714435406 1.0824039515814259 -0.7740918961978631 1.0502083910842588 -0.7776825430195855 1.0173771658387483 C -0.7821536714184052 1.0324398433552324 -0.7829095970650837 1.0488125056571536 -0.786027790357632 1.0642273758044767 C -0.7919506396006408 1.0935194946132658 -0.7990932779553352 1.1227171227162198 -0.8068887611867066 1.1515668532204184 C -0.8274791449945267 1.2277349521874363 -0.8564491363970606 1.3010855101077434 -0.8813044870636972 1.3758405435193228 C -0.8922825890688679 1.408852160112336 -0.9070746795640978 1.440115698647406 -0.9196290583438764 1.472474470363742 C -0.9222833881714176 1.4793250465367656 -0.9252083050202133 1.4861154922606208 -0.9274030664148307 1.4931292796528133 C -0.9301776571407072 1.5020028159371182 -0.9319987507440688 1.511396051103514 -0.9375135719391547 1.5190798635007174 C -0.9442524772780094 1.5284645086029462 -0.9546292747915042 1.5346837150597097 -0.9632966495358057 1.5420539901148242 C -0.9933790542479399 1.5676352012035555 -1.0277607860755582 1.5891576069734736 -1.062099567582342 1.6084723662525235 C -1.0712479859199844 1.6136135196563537 -1.0804264694822105 1.6188620488622687 -1.0901203568944444 1.6229079690848318 C -1.0939386404165874 1.6245014259877733 -1.0988908124087475 1.626816448280726 -1.1030956488183963 1.6264685506819705 C -1.1170115527686129 1.6209150741981337 -1.1160279904215142 1.6096792702679596 -1.1148382665344125 1.5971248914881808 C -1.1139191296685649 1.5874181189796965 -1.1127508809418798 1.5777371166637126 -1.1115697471189447 1.5680561143477283 C -1.1046032050796697 1.510786156547671 -1.0977268587141462 1.453730950351784 -1.0883679838044173 1.3967616447975646 C -1.0669572488686678 1.266394535970121 -1.0337008154469005 1.1386559867777173 -0.9795533459714751 1.0178968647208395 C -0.9495740220293423 0.9510318052464666 -0.9134227369833634 0.8853865348837788 -0.8730623204956522 0.824225278016161 C -0.8493666284915338 0.7883231048310193 -0.8239314484936384 0.7534689194742274 -0.799295144463255 0.7181981160053454 C -0.7506882663754157 0.6486014161259299 -0.7055388891147136 0.5746323735856127 -0.6766590933859311 0.49443982955644894 C -0.6671413022891164 0.4679996120510379 -0.6587531046302362 0.4405973073589451 -0.6545310880922539 0.4127955646830961 C -0.6531309076330654 0.4035827208642029 -0.6524565875959716 0.3942109608582236 -0.6516104662755418 0.38493369155807944 C -0.6513871246072047 0.38250699843095815 -0.650498052965941 0.3697937034640939 -0.6486511891700788 0.37160620700328884 Z" fill="#054f88" transform="matrix(1,0,0,1,0,0)" fill-rule="evenodd"></path></g><g clip-path="url(#SvgjsClipPath8292845d8c439-87b4-465a-ba71-0eff24f337b6)"><path d=" M -0.7559625657738314 1.1638377598826923 C -0.747595843275368 1.162042436471831 -0.7382111981731383 1.153005688968357 -0.731798715272622 1.1475424081582726 C -0.7114316731331387 1.1301861835092526 -0.6957548060287284 1.109046035594757 -0.6814652342872562 1.086578722766491 C -0.6593157538331615 1.0517417175380324 -0.6435615761512499 1.0124206988145046 -0.6300107499281224 0.9735635435559833 C -0.6222152666967513 0.9512164916260526 -0.6138871994870383 0.9287921291186205 -0.6088834871098774 0.9056032509003433 C -0.6009634479480874 0.8688936116835222 -0.598175972125961 0.8318317798358628 -0.5928759025350447 0.794761357924036 C -0.5860167362978552 0.787953732071847 -0.5828126423636388 0.7754938439979031 -0.5786163960181563 0.7668865997027692 C -0.5667191571471384 0.7424650472765562 -0.5576437543549138 0.7174464853907505 -0.5502992494922996 0.6913069201311772 C -0.5404292657646463 0.6561821477531309 -0.5299923378019837 0.6206450522950784 -0.5237774263773036 0.5846440933720185 C -0.5142725203767391 0.5296118472874127 -0.5119703831800368 0.47494038389781235 -0.5133447934467248 0.41925529293652986 C -0.5140577687725694 0.390521528298583 -0.5182540151180515 0.36270260549440025 -0.5244989917673153 0.3347118814068817 C -0.5264274611727617 0.32606168679091374 -0.5277546260865322 0.3172998213407776 -0.5287682536582148 0.3085035956339741 C -0.5292922475723896 0.3039465665934865 -0.5302199745024043 0.29968159973467023 -0.5280853435569544 0.2955154186137722 C -0.5232362523347955 0.2967223226292076 -0.5182540151180515 0.30338391739056114 -0.5145559924942438 0.306678206998529 C -0.5039386731840785 0.31613157261409275 -0.4932655184568291 0.3254045468821535 -0.48302186693792004 0.33527023557772373 C -0.46729345944850875 0.3504145187037926 -0.4520418005203548 0.36622453180278847 -0.43787678470930125 0.3828463059655469 C -0.43189810004920837 0.3898600933577392 -0.42416704229908797 0.3967922751403472 -0.4206708861832005 0.40549830517339913 C -0.4163028385543823 0.41636903137648495 -0.4188154323231714 0.4322005196358978 -0.4185104850452501 0.4437498609081607 C -0.4177760345589885 0.4717835353165134 -0.4171661400031459 0.49974419417944826 -0.41716184497106257 0.527812228844468 C -0.4171532549068955 0.5717289318972343 -0.4180079662914924 0.615692880302918 -0.42345836200532716 0.6593089311098463 C -0.4292566553179169 0.7057339328993184 -0.4410164531622667 0.7510078660904391 -0.45310696847703813 0.7961142930303071 C -0.4852423985250378 0.9159714583496712 -0.5355028639649859 1.0307433056822892 -0.6052284148069038 1.1337639452347248 C -0.6370932578336495 1.18083749686879 -0.6707276540787559 1.2259911691615755 -0.7094903186314419 1.2676916356593075 C -0.7189050289582548 1.277819321311965 -0.7283326243813182 1.2881102181837918 -0.7384173597131416 1.2975764688956057 C -0.7422785935561185 1.3012057710060787 -0.7473810916711978 1.306875213356167 -0.752857257577533 1.3078373005428485 C -0.7550090686513167 1.3082109683341043 -0.7570363237946813 1.3072231109549224 -0.75887889255846 1.30623525357574 C -0.7676965934256805 1.3014978331877498 -0.7655361922877302 1.291331492246342 -0.7644065988497957 1.2830077200687124 C -0.7604852345576516 1.2541408094361803 -0.7590764640342964 1.2253640944773994 -0.7571050443080158 1.1963210875294479 C -0.7566111156184248 1.1890324180839178 -0.7564650845275893 1.1816836181892199 -0.7565595752334238 1.1743777686153565 C -0.7565982305221746 1.1712037399057238 -0.7574744170671881 1.1666853661539867 -0.7559625657738314 1.1638377598826923 Z" fill="#08829d" transform="matrix(1,0,0,1,0,0)" fill-rule="evenodd"></path></g><g clip-path="url(#SvgjsClipPath8292845d8c439-87b4-465a-ba71-0eff24f337b6)"><path d=" M -0.693959482617867 -0.09817151718276695 C -0.688848394438621 -0.08986063010138767 -0.6877789314498541 -0.07843584475954335 -0.6843514958473007 -0.06930890158231806 C -0.6794293890797247 -0.05619616863169752 -0.6713074834100148 -0.04379641100692133 -0.6622535557782072 -0.033187681760923016 C -0.6210813782267335 0.015054118599827193 -0.5553029618694607 0.032822666328853556 -0.49564926126311626 0.012086251430197703 C -0.48277275507708284 0.007610827999294689 -0.4701324756556362 0.0019156154567062655 -0.45932187990171824 -0.006511237490924748 C -0.441828214226029 -0.02014366932363676 -0.4279294904041464 -0.03867673276350836 -0.41915044482567687 -0.05903088980674154 C -0.41626418326563197 -0.06572684482476243 -0.413691459047675 -0.0727664024094552 -0.41162554861555956 -0.07976300967331396 C -0.4106333962042945 -0.08312172476253288 -0.4108309676801305 -0.08672955171258889 -0.40735628672466007 -0.08812973217177744 C -0.40539345706254615 -0.08620126276633078 -0.4050326743675403 -0.08114601000416888 -0.4044356649079477 -0.07848738514454412 C -0.40223231344916366 -0.06864317160939104 -0.40025230365871645 -0.058824728266738346 -0.4000375520545463 -0.048701337646164355 C -0.3991398903491157 -0.0062664206621710905 -0.4143485989564355 0.032844141489270506 -0.4442892676098178 0.06316706799807548 C -0.49068849920678925 0.1101547189904728 -0.5648121629021086 0.1191871714618633 -0.6232761396213511 0.0894526643484842 C -0.6415772713287191 0.0801453298237561 -0.656871880577707 0.06647853773437695 -0.6702036601645811 0.051016422234136605 C -0.6963260452958204 0.0207321510140821 -0.711616359512725 -0.021548144814908743 -0.7055560692430474 -0.06170669479469981 C -0.7041258235592751 -0.0711643554423469 -0.7017549658492381 -0.08029129861957218 -0.6993969932354516 -0.08953850269513264 C -0.6984821514016872 -0.09312485448477181 -0.6979237972308456 -0.09781073448776134 -0.693959482617867 -0.09817151718276695 Z" fill="#068da4" transform="matrix(1,0,0,1,0,0)" fill-rule="evenodd"></path></g><g clip-path="url(#SvgjsClipPath8292845d8c439-87b4-465a-ba71-0eff24f337b6)"><path d=" M -0.40735628672466007 -0.08812973217177744 C -0.4108309676801305 -0.08672955171258889 -0.4106333962042945 -0.08312172476253288 -0.41162554861555956 -0.07976300967331396 C -0.413691459047675 -0.0727664024094552 -0.41626418326563197 -0.06572684482476243 -0.41915044482567687 -0.05903088980674154 C -0.4279294904041464 -0.03867673276350836 -0.441828214226029 -0.02014366932363676 -0.45932187990171824 -0.006511237490924748 C -0.4701324756556362 0.0019156154567062655 -0.48277275507708284 0.007610827999294689 -0.49564926126311626 0.012086251430197703 C -0.5553029618694607 0.032822666328853556 -0.6210813782267335 0.015054118599827193 -0.6622535557782072 -0.033187681760923016 C -0.6713074834100148 -0.04379641100692133 -0.6794293890797247 -0.05619616863169752 -0.6843514958473007 -0.06930890158231806 C -0.6877789314498541 -0.07843584475954335 -0.688848394438621 -0.08986063010138767 -0.693959482617867 -0.09817151718276695 C -0.6951148462483017 -0.1027070710628375 -0.6934097185111918 -0.10576942893830188 -0.6916143951003306 -0.11003010076503472 C -0.688290040267779 -0.11790289457390712 -0.6846349679648054 -0.12556093677860947 -0.6799533829938991 -0.13271216519747076 C -0.6580658994968922 -0.1661532849988241 -0.6249812673584609 -0.18743946400415512 -0.5857848045653513 -0.19484839434802043 C -0.5267925388998509 -0.20599400260444378 -0.46617675110682466 -0.1846605782461953 -0.4301113667025138 -0.1357917032012687 C -0.42229870334280895 -0.12520874414777072 -0.4156199284531219 -0.11338881585425353 -0.41096411367471575 -0.10107495887114537 C -0.40937065677177475 -0.09686153239732997 -0.408984103884269 -0.09226155303600836 -0.40735628672466007 -0.08812973217177744 Z" fill="#28bbcc" transform="matrix(1,0,0,1,0,0)" fill-rule="evenodd"></path></g><g clip-path="url(#SvgjsClipPath8292845d8c439-87b4-465a-ba71-0eff24f337b6)"><path d=" M -0.5280853435569544 0.2955154186137722 C -0.5302199745024043 0.29968159973467023 -0.5292922475723896 0.3039465665934865 -0.5287682536582148 0.3085035956339741 C -0.5277546260865322 0.3172998213407776 -0.5264274611727617 0.32606168679091374 -0.5244989917673153 0.3347118814068817 C -0.5182540151180515 0.36270260549440025 -0.5140577687725694 0.390521528298583 -0.5133447934467248 0.41925529293652986 C -0.5119703831800368 0.47494038389781235 -0.5142725203767391 0.5296118472874127 -0.5237774263773036 0.5846440933720185 C -0.5299923378019837 0.6206450522950784 -0.5404292657646463 0.6561821477531309 -0.5502992494922996 0.6913069201311772 C -0.5576437543549138 0.7174464853907505 -0.5667191571471384 0.7424650472765562 -0.5786163960181563 0.7668865997027692 C -0.5828126423636388 0.7754938439979031 -0.5860167362978552 0.787953732071847 -0.5928759025350447 0.794761357924036 C -0.5939324804275614 0.7758159714041581 -0.5930348187221308 0.7567073736651109 -0.5934428467700539 0.7376846765677318 C -0.594087101582564 0.707941579390186 -0.5954099714642513 0.6778462895818014 -0.5979010900726232 0.6481805029817567 C -0.6028317869043665 0.5894459392412599 -0.6100259656440614 0.5300714157203363 -0.622296872306336 0.4723762497440225 C -0.6295468864631151 0.43831235029057636 -0.6389701868540951 0.4050129665479749 -0.6486511891700788 0.37160620700328884 C -0.6507557548909451 0.3656489975036128 -0.6493340992713397 0.35735529055056714 -0.6490420370896686 0.3511317890617205 C -0.6484149624054922 0.3379159753410983 -0.6479038535875674 0.3249106181925625 -0.6481744406088217 0.3116690342794399 C -0.6486769593625796 0.2872431868211436 -0.650197400720103 0.26313946676910194 -0.6527701249380597 0.23883817524122397 C -0.6540414544347464 0.22682926553603733 -0.6568675855456236 0.2150436974991874 -0.6578210826681383 0.20300042753733338 C -0.6556692715943548 0.2054872511136222 -0.650334841746772 0.20748014600031972 -0.6473583845129758 0.20932700979618168 C -0.6401770908695306 0.21378525309875107 -0.6329786170977518 0.21832939704298837 -0.6259734197697264 0.2230582273668119 C -0.6020286159047707 0.23923331819289695 -0.578715181756075 0.2563361359489962 -0.5556981048211336 0.2738126214963513 C -0.5490536901881136 0.27885928419434647 -0.5422159991113404 0.2836740151598379 -0.5357047304729057 0.2888924791411692 C -0.5332479721212011 0.29085960383536646 -0.529777586197814 0.2928567937541474 -0.5280853435569544 0.2955154186137722 Z" fill="#26b7c6" transform="matrix(1,0,0,1,0,0)" fill-rule="evenodd"></path></g></g><g><path d=" M 0.2955 0.9809999999999999 L 0.2955 0.7184999999999999 C 0.2955 0.708 0.3 0.702 0.312 0.6929999999999998 L 0.426 0.6164999999999999 C 0.426 0.6164999999999999 0.519 0.6839999999999999 0.519 0.7049999999999998 L 0.519 0.96 C 0.519 0.9749999999999999 0.513 0.9809999999999999 0.498 0.9809999999999999 M 0.459 0.17849999999999988 C 0.47700000000000004 0.17849999999999988 0.48 0.18149999999999988 0.48 0.19799999999999984 L 0.48 0.3599999999999999 C 0.48 0.37349999999999994 0.46950000000000003 0.38849999999999985 0.4545 0.3989999999999999 L 0.2955 0.4979999999999999 L 0.2955 0.17849999999999988 M 0.5775 1.146 C 0.654 1.146 0.72 1.107 0.72 1.0305 L 0.72 0.6344999999999998 C 0.72 0.5744999999999999 0.642 0.5309999999999999 0.6015 0.5025 C 0.6315000000000001 0.47699999999999987 0.681 0.44099999999999995 0.681 0.3869999999999999 L 0.681 0.15749999999999986 C 0.681 0.06599999999999984 0.6285000000000001 0.013499999999999845 0.5175 0.013499999999999845 L 0.063 0.013499999999999845 C 0.042 0.013499999999999845 0.03 0.025499999999999856 0.03 0.038999999999999924 C 0.03 0.07049999999999979 0.0945 0.10499999999999998 0.0945 0.16499999999999992 L 0.0945 0.9944999999999999 C 0.0945 1.0545 0.03 1.089 0.03 1.1204999999999998 C 0.03 1.134 0.042 1.146 0.063 1.146 M 1.01555859375 1.146 L 1.31105859375 1.146 C 1.40255859375 1.146 1.45955859375 1.0785 1.45955859375 1.017 L 1.45955859375 0.14249999999999985 C 1.45955859375 0.07649999999999979 1.40105859375 0.013499999999999845 1.31105859375 0.013499999999999845 L 1.01555859375 0.013499999999999845 C 0.93605859375 0.013499999999999845 0.87305859375 0.05549999999999988 0.87305859375 0.1349999999999998 L 0.87305859375 1.0245 C 0.87305859375 1.1024999999999998 0.93455859375 1.146 1.01555859375 1.146 M 1.07405859375 0.9704999999999999 L 1.07405859375 0.18899999999999983 C 1.07405859375 0.18299999999999994 1.07855859375 0.17849999999999988 1.08455859375 0.17849999999999988 L 1.24805859375 0.17849999999999988 C 1.25405859375 0.17849999999999988 1.2585585937500001 0.18299999999999994 1.2585585937500001 0.18899999999999983 L 1.2585585937500001 0.9704999999999999 C 1.2585585937500001 0.9749999999999999 1.25405859375 0.9809999999999999 1.24805859375 0.9809999999999999 L 1.08455859375 0.9809999999999999 C 1.07855859375 0.9809999999999999 1.07405859375 0.9749999999999999 1.07405859375 0.9704999999999999 M 1.725071044921875 1.146 L 2.020571044921875 1.146 C 2.112071044921875 1.146 2.169071044921875 1.0785 2.169071044921875 1.017 L 2.169071044921875 0.14249999999999985 C 2.169071044921875 0.07649999999999979 2.110571044921875 0.013499999999999845 2.020571044921875 0.013499999999999845 L 1.725071044921875 0.013499999999999845 C 1.645571044921875 0.013499999999999845 1.582571044921875 0.05549999999999988 1.582571044921875 0.1349999999999998 L 1.582571044921875 1.0245 C 1.582571044921875 1.1024999999999998 1.644071044921875 1.146 1.725071044921875 1.146 M 1.783571044921875 0.9704999999999999 L 1.783571044921875 0.18899999999999983 C 1.783571044921875 0.18299999999999994 1.788071044921875 0.17849999999999988 1.794071044921875 0.17849999999999988 L 1.957571044921875 0.17849999999999988 C 1.963571044921875 0.17849999999999988 1.968071044921875 0.18299999999999994 1.968071044921875 0.18899999999999983 L 1.968071044921875 0.9704999999999999 C 1.968071044921875 0.9749999999999999 1.963571044921875 0.9809999999999999 1.957571044921875 0.9809999999999999 L 1.794071044921875 0.9809999999999999 C 1.788071044921875 0.9809999999999999 1.783571044921875 0.9749999999999999 1.783571044921875 0.9704999999999999 M 2.451112060546875 1.146 L 2.716612060546875 1.146 C 2.7886120605468747 1.146 2.8591120605468747 1.0844999999999998 2.8591120605468747 1.023 L 2.8591120605468747 0.714 C 2.8591120605468747 0.6495 2.832112060546875 0.6194999999999999 2.782612060546875 0.5864999999999999 L 2.5321120605468748 0.4139999999999999 C 2.5081120605468747 0.3959999999999999 2.503612060546875 0.3839999999999999 2.503612060546875 0.3629999999999999 L 2.503612060546875 0.17849999999999988 L 2.643112060546875 0.17849999999999988 L 2.643112060546875 0.2789999999999999 C 2.643112060546875 0.31799999999999984 2.655112060546875 0.3314999999999999 2.668612060546875 0.3404999999999999 C 2.6941120605468747 0.3569999999999999 2.775112060546875 0.4139999999999999 2.8111120605468747 0.4139999999999999 C 2.826112060546875 0.4139999999999999 2.844112060546875 0.3959999999999999 2.844112060546875 0.3689999999999999 L 2.844112060546875 0.13649999999999984 C 2.844112060546875 0.07499999999999996 2.785612060546875 0.013499999999999845 2.6956120605468747 0.013499999999999845 L 2.445112060546875 0.013499999999999845 C 2.3656120605468747 0.013499999999999845 2.302612060546875 0.053999999999999826 2.302612060546875 0.12899999999999978 L 2.302612060546875 0.4274999999999999 C 2.302612060546875 0.49349999999999994 2.340112060546875 0.5249999999999999 2.383612060546875 0.5549999999999999 L 2.631112060546875 0.726 C 2.650612060546875 0.7394999999999998 2.658112060546875 0.7529999999999999 2.658112060546875 0.7725 L 2.658112060546875 0.9809999999999999 L 2.503612060546875 0.9809999999999999 L 2.503612060546875 0.8399999999999999 C 2.503612060546875 0.8009999999999999 2.491612060546875 0.7874999999999999 2.478112060546875 0.7785 C 2.454112060546875 0.7605 2.371612060546875 0.7049999999999998 2.341612060546875 0.7049999999999998 C 2.3206120605468747 0.7049999999999998 2.302612060546875 0.7214999999999999 2.302612060546875 0.7484999999999999 L 2.302612060546875 1.023 C 2.302612060546875 1.0844999999999998 2.362612060546875 1.146 2.451112060546875 1.146 M 3.32856591796875 0.17849999999999988 C 3.42156591796875 0.17849999999999988 3.42156591796875 0.1874999999999999 3.45156591796875 0.22049999999999992 C 3.47706591796875 0.25049999999999983 3.48906591796875 0.26249999999999984 3.50856591796875 0.26249999999999984 C 3.53256591796875 0.26249999999999984 3.54906591796875 0.24599999999999989 3.54906591796875 0.22199999999999986 L 3.54906591796875 0.038999999999999924 C 3.54906591796875 0.014999999999999902 3.53256591796875 -2.220446049250313e-16 3.50856591796875 -2.220446049250313e-16 C 3.49956591796875 -2.220446049250313e-16 3.48456591796875 0.0014999999999998348 3.45906591796875 0.0044999999999999485 C 3.42906591796875 0.008999999999999897 3.39006591796875 0.013499999999999845 3.36606591796875 0.013499999999999845 L 3.09006591796875 0.013499999999999845 C 2.98356591796875 0.013499999999999845 2.96406591796875 -2.220446049250313e-16 2.94006591796875 -2.220446049250313e-16 C 2.91606591796875 -2.220446049250313e-16 2.90706591796875 0.010499999999999954 2.90706591796875 0.034499999999999975 L 2.90706591796875 0.23099999999999987 C 2.90706591796875 0.2489999999999999 2.91756591796875 0.26249999999999984 2.93406591796875 0.26249999999999984 C 2.95506591796875 0.26249999999999984 2.96856591796875 0.24749999999999994 3.00156591796875 0.21899999999999986 C 3.03456591796875 0.1904999999999999 3.04356591796875 0.17849999999999988 3.12756591796875 0.17849999999999988 L 3.12756591796875 0.9944999999999999 C 3.12756591796875 1.0545 3.06306591796875 1.089 3.06306591796875 1.1204999999999998 C 3.06306591796875 1.134 3.07506591796875 1.146 3.09606591796875 1.146 L 3.36006591796875 1.146 C 3.38106591796875 1.146 3.39306591796875 1.134 3.39306591796875 1.1204999999999998 C 3.39306591796875 1.089 3.32856591796875 1.0545 3.32856591796875 0.9944999999999999 M 4.15506298828125 1.146 C 4.19106298828125 1.146 4.20606298828125 1.131 4.20606298828125 1.095 L 4.20606298828125 0.7785 C 4.20606298828125 0.7619999999999999 4.19256298828125 0.7499999999999999 4.18056298828125 0.7499999999999999 C 4.16256298828125 0.7499999999999999 4.04556298828125 0.8294999999999999 4.02156298828125 0.8474999999999999 C 4.0095629882812505 0.8564999999999999 4.00506298828125 0.8639999999999999 4.00506298828125 0.8864999999999998 L 4.00506298828125 0.9809999999999999 L 3.88206298828125 0.9809999999999999 C 3.87156298828125 0.9809999999999999 3.86256298828125 0.9734999999999999 3.86256298828125 0.9629999999999999 L 3.86256298828125 0.7949999999999999 L 4.0350629882812505 0.6854999999999999 C 4.0575629882812505 0.6719999999999999 4.06356298828125 0.6599999999999999 4.06356298828125 0.6344999999999998 L 4.06356298828125 0.49649999999999994 C 4.06356298828125 0.47999999999999987 4.05306298828125 0.46499999999999986 4.0350629882812505 0.46499999999999986 C 4.02306298828125 0.46499999999999986 4.0095629882812505 0.47099999999999986 3.99606298828125 0.47999999999999987 L 3.86256298828125 0.564 L 3.86256298828125 0.1964999999999999 C 3.86256298828125 0.1874999999999999 3.87156298828125 0.17849999999999988 3.88206298828125 0.17849999999999988 L 4.00506298828125 0.17849999999999988 L 4.00506298828125 0.3434999999999999 C 4.00506298828125 0.3599999999999999 4.01856298828125 0.3719999999999999 4.03056298828125 0.3719999999999999 C 4.04856298828125 0.3719999999999999 4.16556298828125 0.29249999999999987 4.18956298828125 0.27449999999999986 C 4.20156298828125 0.26549999999999985 4.20606298828125 0.2579999999999999 4.20606298828125 0.23549999999999993 L 4.20606298828125 0.06449999999999978 C 4.20606298828125 0.02849999999999997 4.19106298828125 0.013499999999999845 4.15506298828125 0.013499999999999845 L 3.6300629882812503 0.013499999999999845 C 3.60906298828125 0.013499999999999845 3.59706298828125 0.025499999999999856 3.59706298828125 0.038999999999999924 C 3.59706298828125 0.07049999999999979 3.66156298828125 0.10499999999999998 3.66156298828125 0.16499999999999992 L 3.66156298828125 0.9944999999999999 C 3.66156298828125 1.0545 3.59706298828125 1.089 3.59706298828125 1.1204999999999998 C 3.59706298828125 1.134 3.60906298828125 1.146 3.6300629882812503 1.146 M 4.728068115234374 0.17849999999999988 C 4.743068115234375 0.17849999999999988 4.749068115234374 0.1844999999999999 4.749068115234374 0.19799999999999984 L 4.749068115234374 0.45299999999999985 C 4.749068115234374 0.4634999999999999 4.746068115234375 0.4754999999999999 4.713068115234375 0.4979999999999999 L 4.5645681152343744 0.5999999999999999 L 4.5645681152343744 0.17849999999999988 M 4.948568115234375 1.011 C 4.938068115234374 0.9914999999999999 4.875068115234375 0.8324999999999999 4.813568115234375 0.6555 C 4.882568115234375 0.6119999999999999 4.950068115234375 0.5729999999999998 4.950068115234375 0.5084999999999998 L 4.950068115234375 0.15599999999999992 C 4.950068115234375 0.05699999999999994 4.887068115234375 0.011999999999999789 4.786568115234375 0.011999999999999789 L 4.3320681152343745 0.013499999999999845 C 4.311068115234375 0.013499999999999845 4.299068115234375 0.025499999999999856 4.299068115234375 0.038999999999999924 C 4.299068115234375 0.07049999999999979 4.363568115234375 0.10499999999999998 4.363568115234375 0.16499999999999992 L 4.363568115234375 0.9944999999999999 C 4.363568115234375 1.0545 4.299068115234375 1.089 4.299068115234375 1.1204999999999998 C 4.299068115234375 1.134 4.311068115234375 1.146 4.3320681152343745 1.146 L 4.596068115234375 1.146 C 4.617068115234375 1.146 4.629068115234375 1.134 4.629068115234375 1.1204999999999998 C 4.629068115234375 1.089 4.5645681152343744 1.0545 4.5645681152343744 0.9944999999999999 L 4.5645681152343744 0.8264999999999999 C 4.5645681152343744 0.8174999999999999 4.5660681152343745 0.813 4.570568115234375 0.8099999999999998 L 4.626068115234375 0.7754999999999999 C 4.626068115234375 0.7754999999999999 4.7310681152343745 1.0439999999999998 4.7310681152343745 1.0605 C 4.7310681152343745 1.0935 4.696568115234375 1.0979999999999999 4.696568115234375 1.1204999999999998 C 4.696568115234375 1.134 4.710068115234375 1.146 4.7310681152343745 1.146 L 4.990568115234375 1.146 C 5.007068115234375 1.146 5.022068115234375 1.134 5.022068115234375 1.1204999999999998 C 5.022068115234375 1.0875 4.993568115234375 1.0904999999999998 4.948568115234375 1.011" fill="#203034" fill-rule="nonzero"></path></g><g></g></g><defs><clipPath id="SvgjsClipPath82933"><path d=" M -2.580754301688437 -0.6289349400029935 h 2.180754301688437 v 2.403869880005987 h -2.180754301688437 Z"></path></clipPath><clipPath id="SvgjsClipPath8292845d8c439-87b4-465a-ba71-0eff24f337b6"><path d=" M -2.580754301688437 -0.6289349400029935 L -0.3999999999999999 -0.6289349400029935 L -0.3999999999999999 1.7749349400029935 L -2.580754301688437 1.7749349400029935 Z"></path></clipPath></defs></svg>